<svg version="1.1" id="Layer_1" xmlns="http://www.w3.org/2000/svg" xmlns:xlink="http://www.w3.org/1999/xlink" x="0px" y="0px"
	 width="100%" viewBox="0 0 256 256" enable-background="new 0 0 256 256" xml:space="preserve">
<path fill="#343842" opacity="1.000000" stroke="none" 
	d="
M0.999997,166.000000 
	C1.000000,112.161186 0.988640,58.322361 1.072541,4.483683 
	C1.074431,3.271216 -0.531992,0.516139 3.500054,1.468596 
	C4.673601,12.859354 4.579590,23.896212 6.190840,34.678234 
	C8.981224,53.350685 12.828216,71.865242 16.192310,90.884232 
	C16.097624,110.634727 15.993695,129.947098 16.020950,149.259262 
	C16.028065,154.299255 18.002293,156.124573 23.023546,156.245956 
	C28.677734,156.382660 34.334248,156.423248 40.046333,156.845734 
	C42.669445,163.289032 44.685108,169.700638 47.899075,175.441330 
	C60.921490,198.701584 74.983955,221.283340 92.743790,241.356873 
	C97.125343,246.309235 100.930084,251.771927 105.000000,257.000000 
	C88.312439,257.000000 71.624878,257.000000 54.417294,256.643188 
	C53.113533,254.655075 52.582985,252.830826 51.508469,251.421204 
	C32.265106,226.176559 16.880999,198.702972 4.025146,169.745667 
	C3.396075,168.328720 2.025360,167.241028 0.999997,166.000000 
z"/>
<path fill="#393D46" opacity="1.000000" stroke="none" 
	d="
M105.468658,257.000000 
	C100.930084,251.771927 97.125343,246.309235 92.743790,241.356873 
	C74.983955,221.283340 60.921490,198.701584 47.899075,175.441330 
	C44.685108,169.700638 42.669445,163.289032 40.508080,156.754089 
	C56.605892,156.383224 72.298546,156.444138 88.000443,156.873962 
	C89.852982,163.189438 91.672028,169.143845 93.580215,175.069519 
	C93.755035,175.612396 94.516159,175.955582 94.977654,176.418762 
	C98.323242,179.776550 102.203415,182.755981 104.914696,186.566483 
	C122.581680,211.396118 143.098907,233.445984 167.308090,252.022171 
	C169.093842,253.392426 170.446182,255.327499 172.000000,257.000000 
	C149.979111,257.000000 127.958214,257.000000 105.468658,257.000000 
z"/>
<path fill="#41454E" opacity="1.000000" stroke="none" 
	d="
M257.000000,218.000000 
	C257.000000,230.891800 257.000000,243.783585 257.000000,257.000000 
	C252.320099,257.000000 247.632706,257.000000 242.315735,256.698608 
	C239.911270,255.247101 238.262283,253.796692 236.342636,252.991806 
	C207.006790,240.691544 181.021973,223.355286 158.522812,200.908051 
	C151.951172,194.351608 146.071671,187.101959 139.863678,180.180115 
	C138.162491,178.283295 136.392365,176.447922 134.705536,174.538712 
	C133.102615,172.724487 131.567307,170.850540 130.001129,169.001434 
	C130.000000,169.000000 129.997162,168.997772 129.945709,168.643097 
	C127.926071,164.359161 125.957878,160.429886 124.451958,156.411606 
	C140.272461,156.381409 155.630676,156.440201 171.015076,156.841370 
	C172.438583,159.367081 173.823563,161.558441 175.236694,163.731506 
	C176.654999,165.912521 178.130341,168.057449 179.492584,170.272385 
	C179.635544,170.504822 179.183762,171.103043 178.937164,171.703934 
	C177.863007,171.143265 176.914536,170.648209 175.426910,169.871719 
	C175.426910,172.206665 175.426910,174.035858 175.426910,175.992172 
	C176.496887,175.992172 177.483215,176.269073 177.744812,175.950638 
	C181.627808,171.223587 183.325195,172.578323 187.798492,176.755447 
	C201.029694,189.110550 215.685486,199.972000 232.239410,207.742752 
	C240.317810,211.534927 248.735748,214.603760 257.000000,218.000000 
z"/>
<path fill="#3C414A" opacity="1.000000" stroke="none" 
	d="
M130.002258,169.002853 
	C131.567307,170.850540 133.102615,172.724487 134.705536,174.538712 
	C136.392365,176.447922 138.162491,178.283295 139.863678,180.180115 
	C146.071671,187.101959 151.951172,194.351608 158.522812,200.908051 
	C181.021973,223.355286 207.006790,240.691544 236.342636,252.991806 
	C238.262283,253.796692 239.911270,255.247101 241.843079,256.698608 
	C218.979111,257.000000 195.958206,257.000000 172.468658,257.000000 
	C170.446182,255.327499 169.093842,253.392426 167.308090,252.022171 
	C143.098907,233.445984 122.581680,211.396118 104.914696,186.566483 
	C102.203415,182.755981 98.323242,179.776550 94.977654,176.418762 
	C94.516159,175.955582 93.755035,175.612396 93.580215,175.069519 
	C91.672028,169.143845 89.852982,163.189438 88.462372,156.784149 
	C100.606606,156.383820 112.298149,156.442200 123.989685,156.500595 
	C125.957878,160.429886 127.926071,164.359161 129.787323,168.709290 
	C129.489609,169.347717 129.298828,169.565292 129.108063,169.782867 
	C129.243454,169.796722 129.456573,169.870926 129.500778,169.813995 
	C129.694626,169.564316 129.839569,169.276703 130.002258,169.002853 
z"/>
<path fill="#454951" opacity="1.000000" stroke="none" 
	d="
M257.000000,217.531342 
	C248.735748,214.603760 240.317810,211.534927 232.239410,207.742752 
	C215.685486,199.972000 201.029694,189.110550 187.798492,176.755447 
	C183.325195,172.578323 181.627808,171.223587 177.744812,175.950638 
	C177.483215,176.269073 176.496887,175.992172 175.426910,175.992172 
	C175.426910,174.035858 175.426910,172.206665 175.426910,169.871719 
	C176.914536,170.648209 177.863007,171.143265 178.937164,171.703934 
	C179.183762,171.103043 179.635544,170.504822 179.492584,170.272385 
	C178.130341,168.057449 176.654999,165.912521 175.236694,163.731506 
	C173.823563,161.558441 172.438583,159.367081 171.477570,156.753159 
	C192.656311,156.301224 213.399414,156.352524 234.140305,156.161972 
	C236.595856,156.139404 239.039276,154.792923 241.703690,154.399811 
	C246.946045,157.826340 251.973022,160.913162 257.000000,164.000000 
	C257.000000,181.687561 257.000000,199.375122 257.000000,217.531342 
z"/>
<path fill="#383C46" opacity="1.000000" stroke="none" 
	d="
M16.232029,90.446022 
	C12.828216,71.865242 8.981224,53.350685 6.190840,34.678234 
	C4.579590,23.896212 4.673601,12.859354 4.000053,1.468596 
	C15.020894,1.000000 26.041788,1.000000 37.531342,1.463951 
	C38.337521,7.544374 38.406704,13.192639 39.067631,18.770792 
	C40.506416,30.913940 42.005890,43.059879 43.936329,55.131794 
	C45.634056,65.748512 47.952053,76.266037 49.531319,86.889595 
	C40.837257,86.965195 32.592266,86.694977 24.387480,87.149925 
	C21.616594,87.303574 18.947592,89.294662 16.232029,90.446022 
z"/>
<path fill="#3C4049" opacity="1.000000" stroke="none" 
	d="
M49.996113,86.827370 
	C47.952053,76.266037 45.634056,65.748512 43.936329,55.131794 
	C42.005890,43.059879 40.506416,30.913940 39.067631,18.770792 
	C38.406704,13.192639 38.337521,7.544374 38.000000,1.463951 
	C48.020893,1.000000 58.041790,1.000000 68.531662,1.447425 
	C69.338768,6.370160 69.445221,10.877441 70.057587,15.314909 
	C72.055397,29.791880 73.939079,44.295605 76.455017,58.686172 
	C78.111038,68.158180 80.780563,77.452988 82.531448,86.889160 
	C71.376457,86.909904 60.686287,86.868637 49.996113,86.827370 
z"/>
<path fill="#4B5058" opacity="1.000000" stroke="none" 
	d="
M170.000000,1.000000 
	C179.020889,1.000000 188.041794,1.000000 197.556259,1.423319 
	C198.333252,3.815827 198.722473,5.776390 198.883865,7.755531 
	C200.626617,29.125446 207.503967,48.842426 218.146729,67.315895 
	C221.944183,73.907425 226.038406,80.327972 229.532135,86.887100 
	C218.043472,86.907387 207.019821,86.867126 195.940765,86.477539 
	C195.208221,84.623306 194.497559,83.132454 193.859314,81.611214 
	C189.115829,70.305145 183.272781,59.311108 179.930115,47.603767 
	C175.579529,32.366272 173.217697,16.560953 170.000000,1.000000 
z"/>
<path fill="#40444D" opacity="1.000000" stroke="none" 
	d="
M82.996254,86.827148 
	C80.780563,77.452988 78.111038,68.158180 76.455017,58.686172 
	C73.939079,44.295605 72.055397,29.791880 70.057587,15.314909 
	C69.445221,10.877441 69.338768,6.370160 69.000320,1.447425 
	C77.687561,1.000000 86.375130,1.000000 95.625092,1.404915 
	C96.450195,3.616946 96.840721,5.415952 96.955971,7.232424 
	C98.201279,26.859072 101.099228,46.207500 106.383499,65.181229 
	C108.382942,72.360420 110.133682,79.608864 111.532837,86.887863 
	C101.710678,86.909035 92.353470,86.868088 82.996254,86.827148 
z"/>
<path fill="#454A52" opacity="1.000000" stroke="none" 
	d="
M118.000000,1.000000 
	C126.687569,1.000000 135.375137,1.000000 144.531342,1.461608 
	C145.946426,24.175970 150.314575,45.747105 157.863571,66.690506 
	C160.278030,73.389030 162.621445,80.113152 164.532379,86.886810 
	C154.710678,86.907486 145.353943,86.866936 135.905411,86.468727 
	C133.510132,78.989540 131.031601,71.919083 128.936325,64.736816 
	C122.862450,43.916527 118.632477,22.762276 118.000000,1.000000 
z"/>
<path fill="#484C55" opacity="1.000000" stroke="none" 
	d="
M164.997360,86.825569 
	C162.621445,80.113152 160.278030,73.389030 157.863571,66.690506 
	C150.314575,45.747105 145.946426,24.175970 145.000000,1.461608 
	C153.020905,1.000000 161.041809,1.000000 169.531357,1.000000 
	C173.217697,16.560953 175.579529,32.366272 179.930115,47.603767 
	C183.272781,59.311108 189.115829,70.305145 193.859314,81.611214 
	C194.497559,83.132454 195.208221,84.623306 195.475800,86.538010 
	C185.043289,86.907059 175.020325,86.866310 164.997360,86.825569 
z"/>
<path fill="#2F343E" opacity="1.000000" stroke="none" 
	d="
M0.999997,166.468658 
	C2.025360,167.241028 3.396075,168.328720 4.025146,169.745667 
	C16.880999,198.702972 32.265106,226.176559 51.508469,251.421204 
	C52.582985,252.830826 53.113533,254.655075 53.948635,256.643188 
	C36.387173,257.000000 18.774345,257.000000 1.000000,257.000000 
	C1.000000,226.979279 1.000000,196.958298 0.999997,166.468658 
z"/>
<path fill="#51555D" opacity="1.000000" stroke="none" 
	d="
M217.000000,1.000000 
	C230.284943,1.000000 243.569885,1.000000 257.000000,1.000000 
	C257.000000,27.687401 257.000000,54.375042 256.677063,81.423691 
	C255.262421,81.042953 254.022156,80.451057 253.100861,79.537483 
	C231.255676,57.875782 219.922318,31.367592 217.000000,1.000000 
z"/>
<path fill="#4E525A" opacity="1.000000" stroke="none" 
	d="
M216.531723,1.000000 
	C219.922318,31.367592 231.255676,57.875782 253.100861,79.537483 
	C254.022156,80.451057 255.262421,81.042953 256.677063,81.892349 
	C257.000000,91.354225 257.000000,100.708458 256.645630,110.479599 
	C251.896378,108.270088 247.501495,105.643669 243.033386,102.562195 
	C243.267853,85.788628 240.707458,87.021446 229.997162,86.826561 
	C226.038406,80.327972 221.944183,73.907425 218.146729,67.315895 
	C207.503967,48.842426 200.626617,29.125446 198.883865,7.755531 
	C198.722473,5.776390 198.333252,3.815827 198.024918,1.423319 
	C204.021149,1.000000 210.042297,1.000000 216.531723,1.000000 
z"/>
<path fill="#42474F" opacity="1.000000" stroke="none" 
	d="
M117.531418,1.000000 
	C118.632477,22.762276 122.862450,43.916527 128.936325,64.736816 
	C131.031601,71.919083 133.510132,78.989540 135.440521,86.530411 
	C127.377548,86.908417 119.687668,86.867081 111.997787,86.825745 
	C110.133682,79.608864 108.382942,72.360420 106.383499,65.181229 
	C101.099228,46.207500 98.201279,26.859072 96.955971,7.232424 
	C96.840721,5.415952 96.450195,3.616946 96.093742,1.404915 
	C103.020950,1.000000 110.041893,1.000000 117.531418,1.000000 
z"/>
<path fill="#4B4F58" opacity="1.000000" stroke="none" 
	d="
M243.106613,103.017250 
	C247.501495,105.643669 251.896378,108.270088 256.645630,110.948257 
	C257.000000,125.687561 257.000000,140.375122 256.630432,155.487640 
	C251.855682,153.946945 247.450485,151.981308 242.993805,149.547791 
	C242.997070,133.725662 243.051834,118.371460 243.106613,103.017250 
z"/>
<path fill="#42545C" opacity="1.000000" stroke="none" 
	d="
M243.045303,150.015686 
	C247.450485,151.981308 251.855682,153.946945 256.630432,155.956299 
	C257.000000,158.370560 257.000000,160.741104 257.000000,163.555832 
	C251.973022,160.913162 246.946045,157.826340 241.812866,154.105820 
	C242.152893,152.319992 242.599091,151.167831 243.045303,150.015686 
z"/>
<path fill="#09D6D3" opacity="1.000000" stroke="none" 
	d="
M242.993805,149.547791 
	C242.599091,151.167831 242.152893,152.319992 241.597504,153.766129 
	C239.039276,154.792923 236.595856,156.139404 234.140305,156.161972 
	C213.399414,156.352524 192.656311,156.301224 171.451385,156.410782 
	C155.630676,156.440201 140.272461,156.381409 124.451965,156.411606 
	C112.298149,156.442200 100.606606,156.383820 88.453133,156.415237 
	C72.298546,156.444138 56.605892,156.383224 40.451492,156.413971 
	C34.334248,156.423248 28.677734,156.382660 23.023546,156.245956 
	C18.002293,156.124573 16.028065,154.299255 16.020950,149.259262 
	C15.993695,129.947098 16.097624,110.634727 16.192310,90.884232 
	C18.947592,89.294662 21.616594,87.303574 24.387480,87.149925 
	C32.592266,86.694977 40.837257,86.965195 49.531319,86.889595 
	C60.686287,86.868637 71.376457,86.909904 82.531448,86.889160 
	C92.353470,86.868088 101.710678,86.909035 111.532837,86.887863 
	C119.687668,86.867081 127.377548,86.908417 135.532318,86.888069 
	C145.353943,86.866936 154.710678,86.907486 164.532379,86.886810 
	C175.020325,86.866310 185.043289,86.907059 195.531219,86.887329 
	C207.019821,86.867126 218.043472,86.907387 229.532135,86.887100 
	C240.707458,87.021446 243.267853,85.788628 243.033386,102.562195 
	C243.051834,118.371460 242.997070,133.725662 242.993805,149.547791 
M107.653091,108.811607 
	C107.087845,107.076637 106.825111,105.145714 105.866371,103.665627 
	C105.024345,102.365715 103.402443,101.570992 102.124985,100.553139 
	C101.338715,101.939690 99.893929,103.315170 99.870407,104.714546 
	C99.683136,115.857841 99.671555,127.007385 99.876511,138.150055 
	C99.904099,139.649704 101.223831,142.182510 102.316872,142.404160 
	C105.391426,143.027618 105.496239,140.443542 105.482468,138.155060 
	C105.457733,134.043381 105.475494,129.931458 105.475494,125.819626 
	C105.948364,125.793365 106.421234,125.767113 106.894104,125.740852 
	C108.243492,129.962280 109.407516,134.257111 111.035370,138.368271 
	C111.668388,139.966980 113.347862,141.151367 114.550667,142.524475 
	C115.729729,141.113693 117.379723,139.882538 117.999313,138.258331 
	C119.838783,133.436218 121.272469,128.459290 122.864784,123.542892 
	C123.845673,129.102295 123.715294,134.410507 123.961052,139.701263 
	C124.007484,140.700729 125.549591,141.630722 126.401566,142.592789 
	C127.337395,141.703400 129.074600,140.825897 129.087982,139.922836 
	C129.267914,127.781075 129.256027,115.635178 129.115356,103.492355 
	C129.104034,102.514328 127.837486,100.793839 127.083984,100.754219 
	C125.875031,100.690643 124.307556,101.469490 123.450676,102.404602 
	C122.631012,103.299118 122.519844,104.845474 122.104988,106.107857 
	C119.705605,113.409058 117.308510,120.711021 114.490227,129.292892 
	C111.999481,121.806351 109.960747,115.678459 107.653091,108.811607 
M76.317650,142.478012 
	C76.896713,140.934662 77.876450,139.416550 77.975494,137.842987 
	C78.218292,133.985825 78.054840,130.103119 78.054840,126.230682 
	C78.580627,126.078751 79.106422,125.926819 79.632210,125.774887 
	C80.428642,126.970856 81.453453,128.075134 81.977524,129.380447 
	C83.396889,132.915680 84.415993,136.622833 86.006851,140.071274 
	C86.496208,141.132019 88.317696,141.578217 89.529213,142.305817 
	C90.159668,140.903824 91.540642,139.338104 91.277321,138.131088 
	C90.540634,134.754242 88.876358,131.583954 88.083801,128.213257 
	C87.705498,126.604385 87.949738,124.395958 88.812714,123.026848 
	C92.554474,117.090538 92.373772,110.935066 89.624184,105.002670 
	C86.870331,99.061073 80.947784,100.366203 75.954353,100.685684 
	C74.589661,100.772995 72.293877,103.141876 72.257912,104.511841 
	C71.957130,115.968460 71.978371,127.438660 72.232170,138.897476 
	C72.260162,140.161545 74.357315,141.379807 76.317650,142.478012 
M188.193436,101.561378 
	C182.132202,99.538277 179.883072,100.118568 179.242767,104.308846 
	C177.489578,115.782059 175.887650,127.279953 174.428375,138.793747 
	C174.300247,139.804794 175.656204,141.003952 176.322845,142.115738 
	C177.544556,141.376175 179.288818,140.915314 179.866455,139.832245 
	C180.749802,138.176025 180.828186,136.090515 181.202469,134.394791 
	C185.661469,133.021713 187.786896,134.186844 188.147629,138.758026 
	C188.247360,140.021820 190.347824,141.127731 191.530319,142.306076 
	C192.270248,140.769760 193.803604,139.133820 193.625137,137.712845 
	C192.138199,125.872757 190.335846,114.072289 188.193436,101.561378 
M227.365509,102.088318 
	C219.807953,98.738121 213.535049,101.231949 213.092545,108.423958 
	C212.551544,117.216965 212.729019,126.083084 213.135086,134.892731 
	C213.325577,139.025345 216.022125,141.963974 220.442566,142.565262 
	C224.453415,143.110855 228.683197,141.958267 229.455719,138.034637 
	C231.697693,126.647690 232.668167,115.087410 228.904831,103.715424 
	C228.759781,103.277107 228.279800,102.949638 227.365509,102.088318 
M65.778519,131.149109 
	C65.798180,123.995415 66.043800,116.832970 65.767273,109.690742 
	C65.538910,103.792572 62.000427,100.532242 56.686481,100.520027 
	C51.333443,100.507721 47.880863,103.760590 47.729778,109.726730 
	C47.523518,117.871445 47.528252,126.037361 47.880325,134.175247 
	C48.152676,140.470200 53.612667,144.056900 59.464424,142.230865 
	C64.460106,140.671967 65.647209,136.673615 65.778519,131.149109 
M150.169815,116.634468 
	C150.341675,122.613571 150.130020,128.636124 150.800873,134.558701 
	C151.388443,139.746017 155.785645,142.931686 160.560928,142.641342 
	C164.893738,142.377899 168.499481,138.472290 168.687332,133.374008 
	C168.727219,132.291855 167.403442,130.231201 166.751801,130.248764 
	C165.470779,130.283279 164.113937,131.323013 162.985138,132.200012 
	C161.636292,133.247986 160.493454,134.561111 159.261383,135.759399 
	C158.204620,134.243240 156.324860,132.773804 156.235641,131.202698 
	C155.877548,124.896408 155.840012,118.544548 156.218948,112.241699 
	C156.322571,110.517899 158.291550,108.906250 159.404526,107.243134 
	C160.596130,108.536163 161.654892,109.998596 163.020691,111.069458 
	C164.144806,111.950813 165.639252,112.812294 166.957138,112.793854 
	C167.571320,112.785255 168.728699,110.635254 168.656677,109.519356 
	C168.313889,104.208473 164.919540,100.711021 160.361343,100.527618 
	C155.426178,100.329041 151.678970,103.396301 150.689362,108.736046 
	C150.268784,111.005478 150.328415,113.363907 150.169815,116.634468 
M33.454597,137.912354 
	C33.454597,133.821091 33.454597,129.729813 33.454597,125.983612 
	C34.512638,125.511658 34.795826,125.291710 35.095325,125.266647 
	C37.366947,125.076561 39.920567,125.503731 40.018383,121.923767 
	C40.102905,118.830360 38.232327,118.593994 35.869324,118.284294 
	C34.991669,118.169266 33.719669,116.767990 33.617104,115.843483 
	C33.315319,113.123375 33.509472,110.348251 33.509472,107.344254 
	C35.532555,107.242615 36.828381,107.104469 38.121117,107.128998 
	C40.274979,107.169876 42.023129,107.080566 42.086456,104.103737 
	C42.149822,101.125168 40.750530,100.348495 38.140511,100.458466 
	C35.819206,100.556282 33.484066,100.592072 31.166908,100.454803 
	C28.273750,100.283432 27.468153,101.674950 27.486750,104.347626 
	C27.566498,115.807907 27.432394,127.270615 27.636980,138.727783 
	C27.660307,140.034012 29.322512,141.310974 30.224800,142.601517 
	C31.299950,141.324982 32.375099,140.048447 33.454597,137.912354 
M206.259888,134.272446 
	C206.259476,124.487503 206.250809,114.702538 206.264999,104.917618 
	C206.268173,102.725273 206.472031,99.956070 203.350143,100.546783 
	C202.115814,100.780342 200.537674,103.468979 200.501068,105.071396 
	C200.251175,116.011559 200.364792,126.960144 200.374390,137.906006 
	C200.376266,140.048645 200.010193,142.500748 203.242950,142.642136 
	C206.573029,142.787796 206.278473,140.369171 206.259766,138.184402 
	C206.251236,137.189407 206.259323,136.194260 206.259888,134.272446 
M142.941925,108.661140 
	C142.941757,107.666191 142.963242,106.670670 142.937057,105.676407 
	C142.878098,103.438332 143.581192,100.588417 140.080460,100.441444 
	C136.018448,100.270905 137.011078,103.490356 136.999207,105.779129 
	C136.943420,116.557404 136.976059,127.336136 136.974091,138.114700 
	C136.973694,140.265076 136.558395,142.715759 139.929001,142.598480 
	C143.069641,142.489212 142.955719,140.217560 142.950333,137.973907 
	C142.927643,128.521988 142.941467,119.069984 142.941925,108.661140 
z"/>
<path fill="#41454E" opacity="1.000000" stroke="none" 
	d="
M130.001129,169.001434 
	C129.839569,169.276703 129.694626,169.564316 129.500778,169.813995 
	C129.456573,169.870926 129.243454,169.796722 129.108063,169.782867 
	C129.298828,169.565292 129.489609,169.347717 129.838776,169.063965 
	C129.997162,168.997772 130.000000,169.000000 130.001129,169.001434 
z"/>
<path fill="#252E37" opacity="1.000000" stroke="none" 
	d="
M107.787552,109.181091 
	C109.960747,115.678459 111.999481,121.806351 114.490227,129.292892 
	C117.308510,120.711021 119.705605,113.409058 122.104988,106.107857 
	C122.519844,104.845474 122.631012,103.299118 123.450676,102.404602 
	C124.307556,101.469490 125.875031,100.690643 127.083984,100.754219 
	C127.837486,100.793839 129.104034,102.514328 129.115356,103.492355 
	C129.256027,115.635178 129.267914,127.781075 129.087982,139.922836 
	C129.074600,140.825897 127.337395,141.703400 126.401566,142.592773 
	C125.549591,141.630722 124.007484,140.700729 123.961052,139.701263 
	C123.715294,134.410507 123.845673,129.102295 122.864784,123.542892 
	C121.272469,128.459290 119.838783,133.436218 117.999313,138.258331 
	C117.379723,139.882538 115.729729,141.113693 114.550659,142.524475 
	C113.347862,141.151367 111.668388,139.966980 111.035370,138.368271 
	C109.407516,134.257111 108.243492,129.962280 106.894104,125.740852 
	C106.421234,125.767113 105.948364,125.793365 105.475494,125.819626 
	C105.475494,129.931458 105.457733,134.043381 105.482468,138.155060 
	C105.496239,140.443542 105.391426,143.027618 102.316872,142.404160 
	C101.223831,142.182510 99.904099,139.649704 99.876511,138.150055 
	C99.671555,127.007385 99.683136,115.857841 99.870407,104.714546 
	C99.893929,103.315170 101.338715,101.939690 102.124985,100.553139 
	C103.402443,101.570992 105.024345,102.365715 105.866371,103.665627 
	C106.825111,105.145714 107.087845,107.076637 107.787552,109.181091 
z"/>
<path fill="#24313A" opacity="1.000000" stroke="none" 
	d="
M75.906227,142.548660 
	C74.357315,141.379807 72.260162,140.161545 72.232170,138.897476 
	C71.978371,127.438660 71.957130,115.968460 72.257912,104.511841 
	C72.293877,103.141876 74.589661,100.772995 75.954353,100.685684 
	C80.947784,100.366203 86.870331,99.061073 89.624184,105.002670 
	C92.373772,110.935066 92.554474,117.090538 88.812714,123.026848 
	C87.949738,124.395958 87.705498,126.604385 88.083801,128.213257 
	C88.876358,131.583954 90.540634,134.754242 91.277321,138.131088 
	C91.540642,139.338104 90.159668,140.903824 89.529205,142.305817 
	C88.317696,141.578217 86.496208,141.132019 86.006851,140.071274 
	C84.415993,136.622833 83.396889,132.915680 81.977524,129.380447 
	C81.453453,128.075134 80.428642,126.970856 79.632210,125.774887 
	C79.106422,125.926819 78.580627,126.078751 78.054840,126.230682 
	C78.054840,130.103119 78.218292,133.985825 77.975494,137.842987 
	C77.876450,139.416550 76.896713,140.934662 75.906227,142.548660 
M82.988983,118.979347 
	C86.836632,116.231377 86.483894,112.303314 84.809601,108.934311 
	C84.101532,107.509537 80.907799,107.320068 78.039024,106.276283 
	C78.039024,110.279045 78.251640,112.914215 77.986496,115.500404 
	C77.636078,118.918251 79.413460,119.437386 82.988983,118.979347 
z"/>
<path fill="#24303A" opacity="1.000000" stroke="none" 
	d="
M188.411072,101.910614 
	C190.335846,114.072289 192.138199,125.872757 193.625137,137.712845 
	C193.803604,139.133820 192.270248,140.769760 191.530319,142.306076 
	C190.347824,141.127731 188.247360,140.021820 188.147629,138.758026 
	C187.786896,134.186844 185.661469,133.021713 181.202469,134.394791 
	C180.828186,136.090515 180.749802,138.176025 179.866455,139.832245 
	C179.288818,140.915314 177.544556,141.376175 176.322845,142.115738 
	C175.656204,141.003952 174.300247,139.804794 174.428375,138.793747 
	C175.887650,127.279953 177.489578,115.782059 179.242767,104.308846 
	C179.883072,100.118568 182.132202,99.538277 188.411072,101.910614 
M185.462372,121.202904 
	C185.136703,119.877655 184.811035,118.552406 184.340729,116.638626 
	C181.078110,124.743767 181.458771,126.838226 185.937592,126.383789 
	C185.832535,124.939011 185.726456,123.480324 185.462372,121.202904 
z"/>
<path fill="#24303A" opacity="1.000000" stroke="none" 
	d="
M227.660690,102.329422 
	C228.279800,102.949638 228.759781,103.277107 228.904831,103.715424 
	C232.668167,115.087410 231.697693,126.647690 229.455719,138.034637 
	C228.683197,141.958267 224.453415,143.110855 220.442566,142.565262 
	C216.022125,141.963974 213.325577,139.025345 213.135086,134.892731 
	C212.729019,126.083084 212.551544,117.216965 213.092545,108.423958 
	C213.535049,101.231949 219.807953,98.738121 227.660690,102.329422 
M220.232666,107.879211 
	C216.621918,116.305237 218.556091,125.000381 219.149292,133.600647 
	C219.203979,134.393494 221.045502,135.675949 221.996979,135.624069 
	C222.975540,135.570755 224.668472,134.184784 224.694229,133.340622 
	C224.930695,125.589417 225.006592,117.824310 224.723053,110.078125 
	C224.689285,109.156082 222.226151,108.322975 220.232666,107.879211 
z"/>
<path fill="#242F38" opacity="1.000000" stroke="none" 
	d="
M65.774200,131.601562 
	C65.647209,136.673615 64.460106,140.671967 59.464424,142.230865 
	C53.612667,144.056900 48.152676,140.470200 47.880325,134.175247 
	C47.528252,126.037361 47.523518,117.871445 47.729778,109.726730 
	C47.880863,103.760590 51.333443,100.507721 56.686481,100.520027 
	C62.000427,100.532242 65.538910,103.792572 65.767273,109.690742 
	C66.043800,116.832970 65.798180,123.995415 65.774200,131.601562 
M56.583755,107.185593 
	C55.491917,108.840042 53.561512,110.444038 53.458405,112.157967 
	C53.081364,118.425377 53.085571,124.743309 53.468502,131.010300 
	C53.569851,132.668945 55.543747,134.213165 56.657822,135.809937 
	C57.771454,134.231049 59.746414,132.704407 59.845890,131.064026 
	C60.225956,124.796516 60.183994,118.483696 59.883114,112.207764 
	C59.802586,110.528114 58.243420,108.919365 56.583755,107.185593 
z"/>
<path fill="#24313B" opacity="1.000000" stroke="none" 
	d="
M150.169815,116.158173 
	C150.328415,113.363907 150.268784,111.005478 150.689362,108.736046 
	C151.678970,103.396301 155.426178,100.329041 160.361343,100.527618 
	C164.919540,100.711021 168.313889,104.208473 168.656677,109.519356 
	C168.728699,110.635254 167.571320,112.785255 166.957138,112.793854 
	C165.639252,112.812294 164.144806,111.950813 163.020691,111.069458 
	C161.654892,109.998596 160.596130,108.536163 159.404526,107.243134 
	C158.291550,108.906250 156.322571,110.517899 156.218948,112.241699 
	C155.840012,118.544548 155.877548,124.896408 156.235641,131.202698 
	C156.324860,132.773804 158.204620,134.243240 159.261383,135.759399 
	C160.493454,134.561111 161.636292,133.247986 162.985138,132.200012 
	C164.113937,131.323013 165.470779,130.283279 166.751801,130.248764 
	C167.403442,130.231201 168.727219,132.291855 168.687332,133.374008 
	C168.499481,138.472290 164.893738,142.377899 160.560928,142.641342 
	C155.785645,142.931686 151.388443,139.746017 150.800873,134.558701 
	C150.130020,128.636124 150.341675,122.613571 150.169815,116.158173 
z"/>
<path fill="#24303A" opacity="1.000000" stroke="none" 
	d="
M33.452423,138.342133 
	C32.375099,140.048447 31.299950,141.324982 30.224800,142.601517 
	C29.322512,141.310974 27.660307,140.034012 27.636980,138.727783 
	C27.432394,127.270615 27.566498,115.807907 27.486750,104.347626 
	C27.468153,101.674950 28.273750,100.283432 31.166908,100.454803 
	C33.484066,100.592072 35.819206,100.556282 38.140511,100.458466 
	C40.750530,100.348495 42.149822,101.125168 42.086456,104.103737 
	C42.023129,107.080566 40.274979,107.169876 38.121117,107.128998 
	C36.828381,107.104469 35.532555,107.242615 33.509472,107.344254 
	C33.509472,110.348251 33.315319,113.123375 33.617104,115.843483 
	C33.719669,116.767990 34.991669,118.169266 35.869324,118.284294 
	C38.232327,118.593994 40.102905,118.830360 40.018383,121.923767 
	C39.920567,125.503731 37.366947,125.076561 35.095325,125.266647 
	C34.795826,125.291710 34.512638,125.511658 33.454597,125.983612 
	C33.454597,129.729813 33.454597,133.821091 33.452423,138.342133 
z"/>
<path fill="#233841" opacity="1.000000" stroke="none" 
	d="
M206.259872,134.735809 
	C206.259323,136.194260 206.251236,137.189407 206.259766,138.184402 
	C206.278473,140.369171 206.573029,142.787796 203.242950,142.642136 
	C200.010193,142.500748 200.376266,140.048645 200.374390,137.906006 
	C200.364792,126.960144 200.251175,116.011559 200.501068,105.071396 
	C200.537674,103.468979 202.115814,100.780342 203.350143,100.546783 
	C206.472031,99.956070 206.268173,102.725273 206.264999,104.917618 
	C206.250809,114.702538 206.259476,124.487503 206.259872,134.735809 
z"/>
<path fill="#24303A" opacity="1.000000" stroke="none" 
	d="
M142.941925,109.139572 
	C142.941467,119.069984 142.927643,128.521988 142.950333,137.973907 
	C142.955719,140.217560 143.069641,142.489212 139.929001,142.598480 
	C136.558395,142.715759 136.973694,140.265076 136.974091,138.114700 
	C136.976059,127.336136 136.943420,116.557404 136.999207,105.779129 
	C137.011078,103.490356 136.018448,100.270905 140.080460,100.441444 
	C143.581192,100.588417 142.878098,103.438332 142.937057,105.676407 
	C142.963242,106.670670 142.941757,107.666191 142.941925,109.139572 
z"/>
<path fill="#0AD0CE" opacity="1.000000" stroke="none" 
	d="
M82.559227,119.031616 
	C79.413460,119.437386 77.636078,118.918251 77.986496,115.500404 
	C78.251640,112.914215 78.039024,110.279045 78.039024,106.276283 
	C80.907799,107.320068 84.101532,107.509537 84.809601,108.934311 
	C86.483894,112.303314 86.836632,116.231377 82.559227,119.031616 
z"/>
<path fill="#0CC7C5" opacity="1.000000" stroke="none" 
	d="
M185.541382,121.612274 
	C185.726456,123.480324 185.832535,124.939011 185.937592,126.383789 
	C181.458771,126.838226 181.078110,124.743767 184.340729,116.638626 
	C184.811035,118.552406 185.136703,119.877655 185.541382,121.612274 
z"/>
<path fill="#0ACECC" opacity="1.000000" stroke="none" 
	d="
M220.560883,107.663925 
	C222.226151,108.322975 224.689285,109.156082 224.723053,110.078125 
	C225.006592,117.824310 224.930695,125.589417 224.694229,133.340622 
	C224.668472,134.184784 222.975540,135.570755 221.996979,135.624069 
	C221.045502,135.675949 219.203979,134.393494 219.149292,133.600647 
	C218.556091,125.000381 216.621918,116.305237 220.560883,107.663925 
z"/>
<path fill="#0ACECC" opacity="1.000000" stroke="none" 
	d="
M56.973412,107.231827 
	C58.243420,108.919365 59.802586,110.528114 59.883114,112.207764 
	C60.183994,118.483696 60.225956,124.796516 59.845890,131.064026 
	C59.746414,132.704407 57.771454,134.231049 56.657825,135.809937 
	C55.543747,134.213165 53.569851,132.668945 53.468502,131.010300 
	C53.085571,124.743309 53.081364,118.425377 53.458405,112.157967 
	C53.561512,110.444038 55.491917,108.840042 56.973412,107.231827 
z"/>
</svg>