<svg width="256" height="256" xmlns="http://www.w3.org/2000/svg" xml:space="preserve" enable-background="new 0 0 256 256" version="1.1">

 <g>
  <title>Layer 1</title>
  <path id="svg_1" d="m1,166c0,-53.83881 -0.01136,-107.67764 0.07254,-161.51632c0.00189,-1.21246 -1.60453,-3.96754 2.42751,-3.01508c1.17355,11.39075 1.07954,22.42761 2.69079,33.20963c2.79038,18.67245 6.63738,37.18701 10.00147,56.206c-0.09469,19.7505 -0.19861,39.06287 -0.17136,58.37503c0.00712,5.03999 1.98134,6.86531 7.0026,6.9867c5.65418,0.1367 11.3107,0.17729 17.02278,0.59977c2.62312,6.4433 4.63878,12.85491 7.85275,18.5956c13.02241,23.26025 27.08487,45.84201 44.84471,65.91554c4.38155,4.95237 8.18629,10.41506 12.25621,15.64313c-16.68756,0 -33.37512,0 -50.58271,-0.35681c-1.30376,-1.98811 -1.8343,-3.81236 -2.90882,-5.22199c-19.24336,-25.24464 -34.62747,-52.71823 -47.48332,-81.67553c-0.62907,-1.41695 -1.99979,-2.50464 -3.02515,-3.74567z" fill="#343842"/>
  <path id="svg_2" d="m105.46866,257c-4.53858,-5.22807 -8.34332,-10.69076 -12.72487,-15.64313c-17.75984,-20.07353 -31.8223,-42.65529 -44.84471,-65.91554c-3.21397,-5.74069 -5.22963,-12.1523 -7.391,-18.68724c16.09781,-0.37087 31.79047,-0.30995 47.49236,0.11987c1.85254,6.31548 3.67159,12.26988 5.57977,18.19556c0.17483,0.54288 0.93595,0.88606 1.39744,1.34924c3.34559,3.35779 7.22577,6.33722 9.93705,10.14772c17.66698,24.82964 38.18421,46.8795 62.39339,65.45569c1.78575,1.37026 3.13809,3.30533 4.69191,4.97783c-22.02089,0 -44.04179,0 -66.53134,0z" fill="#393D46"/>
  <path id="svg_3" d="m257,218c0,12.8918 0,25.78358 0,39c-4.6799,0 -9.36729,0 -14.68427,-0.30139c-2.40446,-1.45151 -4.05345,-2.90192 -5.97309,-3.7068c-29.33585,-12.30027 -55.32067,-29.63652 -77.81983,-52.08376c-6.57164,-6.55644 -12.45114,-13.80609 -18.65913,-20.72793c-1.70119,-1.89682 -3.47131,-3.7322 -5.15814,-5.64141c-1.60293,-1.81422 -3.13823,-3.68817 -4.70441,-5.53728c-0.00113,-0.00143 -0.00397,-0.00366 -0.05542,-0.35833c-2.01964,-4.28394 -3.98783,-8.21321 -5.49375,-12.23149c15.8205,-0.0302 31.17872,0.02859 46.56312,0.42976c1.4235,2.52571 2.80848,4.71707 4.22161,6.89014c1.41831,2.18101 2.89365,4.32594 4.25589,6.54088c0.14296,0.23243 -0.30882,0.83065 -0.55542,1.43154c-1.07415,-0.56066 -2.02262,-1.05572 -3.51025,-1.83221c0,2.33494 0,4.16414 0,6.12045c1.06998,0 2.05631,0.2769 2.3179,-0.04153c3.883,-4.72705 5.58039,-3.37232 10.05368,0.80481c13.2312,12.3551 27.887,23.21655 44.44092,30.9873c8.0784,3.79218 16.49634,6.86101 24.76059,10.25725z" fill="#41454E"/>
  <path id="svg_4" d="m130.00226,169.00285c1.56505,1.84769 3.10035,3.72164 4.70328,5.53586c1.68683,1.90921 3.45695,3.74459 5.15814,5.64141c6.20799,6.92184 12.08749,14.17149 18.65913,20.72793c22.49916,22.44724 48.48398,39.78349 77.81983,52.08376c1.91964,0.80488 3.56863,2.25529 5.50044,3.7068c-22.86397,0.30139 -45.88487,0.30139 -69.37442,0.30139c-2.02248,-1.6725 -3.37482,-3.60757 -5.16057,-4.97783c-24.20918,-18.57619 -44.72641,-40.62605 -62.39339,-65.45569c-2.71128,-3.8105 -6.59146,-6.78993 -9.93705,-10.14772c-0.46149,-0.46318 -1.22261,-0.80636 -1.39744,-1.34924c-1.90818,-5.92568 -3.72723,-11.88008 -5.11784,-18.28537c12.14424,-0.40033 23.83578,-0.34195 35.52731,-0.28355c1.9682,3.92929 3.93639,7.85856 5.79764,12.20869c-0.29771,0.63843 -0.48849,0.856 -0.67926,1.07358c0.13539,0.01385 0.34851,0.08806 0.39272,0.03113c0.19385,-0.24968 0.33879,-0.5373 0.50148,-0.81115z" fill="#3C414A"/>
  <path id="svg_5" d="m257,217.53134c-8.26425,-2.92758 -16.68219,-5.99641 -24.76059,-9.78859c-16.55392,-7.77075 -31.20972,-18.6322 -44.44092,-30.9873c-4.47329,-4.17713 -6.17068,-5.53186 -10.05368,-0.80481c-0.26159,0.31843 -1.24792,0.04153 -2.3179,0.04153c0,-1.95631 0,-3.78551 0,-6.12045c1.48763,0.77649 2.4361,1.27155 3.51025,1.83221c0.2466,-0.60089 0.69838,-1.19911 0.55542,-1.43154c-1.36224,-2.21494 -2.83758,-4.35987 -4.25589,-6.54088c-1.41313,-2.17307 -2.79811,-4.36443 -3.75912,-6.97835c21.17874,-0.45194 41.92184,-0.40064 62.66274,-0.59119c2.45555,-0.02257 4.89897,-1.36905 7.56338,-1.76216c5.24235,3.42653 10.26933,6.51335 15.29631,9.60019c0,17.68756 0,35.37512 0,53.53134z" fill="#454951"/>
  <path id="svg_6" d="m16.23203,90.44602c-3.40381,-18.58078 -7.25081,-37.09534 -10.04119,-55.76779c-1.61125,-10.78202 -1.51724,-21.81888 -2.19079,-33.20963c11.02084,-0.4686 22.04174,-0.4686 33.53129,-0.00465c0.80618,6.08042 0.87536,11.72869 1.53629,17.30684c1.43879,12.14315 2.93826,24.28909 4.8687,36.361c1.69773,10.61672 4.01572,21.13425 5.59499,31.7578c-8.69406,0.0756 -16.93905,-0.19461 -25.14384,0.26033c-2.77089,0.15365 -5.43989,2.14474 -8.15545,3.2961z" fill="#383C46"/>
  <path id="svg_7" d="m49.99611,86.82737c-2.04406,-10.56133 -4.36205,-21.07886 -6.05978,-31.69558c-1.93044,-12.07191 -3.42991,-24.21785 -4.8687,-36.361c-0.66093,-5.57815 -0.73011,-11.22642 -1.06763,-17.30684c10.02089,-0.46395 20.04179,-0.46395 30.53166,-0.01653c0.80711,4.92274 0.91356,9.43002 1.52593,13.86749c1.99781,14.47697 3.88149,28.9807 6.39743,43.37126c1.65602,9.47201 4.32554,18.76682 6.07643,28.20299c-11.15499,0.02074 -21.84516,-0.02052 -32.53534,-0.06179z" fill="#3C4049"/>
  <path id="svg_8" d="m170,1c9.02089,0 18.04179,0 27.55626,0.42332c0.77699,2.39251 1.16621,4.35307 1.3276,6.33221c1.74276,21.36992 8.62011,41.0869 19.26287,59.56036c3.79745,6.59154 7.89168,13.01208 11.38541,19.57121c-11.48867,0.02029 -22.51232,-0.01997 -33.59138,-0.40956c-0.73254,-1.85423 -1.4432,-3.34509 -2.08145,-4.86633c-4.74348,-11.30607 -10.58653,-22.3001 -13.92919,-34.00744c-4.35059,-15.2375 -6.71242,-31.04282 -9.93012,-46.60377z" fill="#4B5058"/>
  <path id="svg_9" d="m82.99625,86.82715c-2.21569,-9.37416 -4.88521,-18.66897 -6.54123,-28.14098c-2.51594,-14.39056 -4.39962,-28.89429 -6.39743,-43.37126c-0.61237,-4.43747 -0.71882,-8.94475 -1.05727,-13.86749c8.68724,-0.44742 17.37481,-0.44742 26.62477,-0.04251c0.8251,2.21204 1.21563,4.01104 1.33088,5.82751c1.24531,19.62665 4.14326,38.97508 9.42753,57.94881c1.99944,7.17919 3.75018,14.42763 5.14934,21.70663c-9.82216,0.02118 -19.17937,-0.01977 -28.53659,-0.06071z" fill="#40444D"/>
  <path id="svg_10" d="m118,1c8.68757,0 17.37514,0 26.53134,0.46161c1.41509,22.71436 5.78323,44.28549 13.33223,65.2289c2.41446,6.69852 4.75787,13.42264 6.66881,20.1963c-9.8217,0.02068 -19.17844,-0.01987 -28.62697,-0.41808c-2.39528,-7.47919 -4.87381,-14.54965 -6.96908,-21.73191c-6.07388,-20.82029 -10.30385,-41.97454 -10.93633,-63.73682z" fill="#454A52"/>
  <path id="svg_11" d="m164.99736,86.82557c-2.37592,-6.71242 -4.71933,-13.43654 -7.13379,-20.13506c-7.549,-20.94341 -11.91714,-42.51454 -12.86357,-65.2289c8.0209,-0.46161 16.04181,-0.46161 24.53136,-0.46161c3.68634,15.56095 6.04817,31.36627 10.39876,46.60377c3.34266,11.70734 9.18571,22.70137 13.92919,34.00744c0.63825,1.52124 1.34891,3.0121 1.61649,4.9268c-10.43251,0.36905 -20.45547,0.3283 -30.47844,0.28756z" fill="#484C55"/>
  <path id="svg_12" d="m1,166.46866c1.02536,0.77237 2.39608,1.86006 3.02515,3.27701c12.85585,28.9573 28.23996,56.43089 47.48332,81.67553c1.07452,1.40963 1.60506,3.23388 2.44017,5.22199c-17.56147,0.35681 -35.17429,0.35681 -52.94864,0.35681c0,-30.02072 0,-60.0417 0,-90.53134z" fill="#2F343E"/>
  <path id="svg_13" d="m217,1c13.28494,0 26.56988,0 40,0c0,26.6874 0,53.37504 -0.32294,80.42369c-1.41464,-0.38074 -2.6549,-0.97263 -3.5762,-1.88621c-21.84518,-21.6617 -33.17854,-48.16989 -36.10086,-78.53748z" fill="#51555D"/>
  <path id="svg_14" d="m216.53172,1c3.3906,30.36759 14.72396,56.87578 36.56914,78.53748c0.9213,0.91358 2.16156,1.50547 3.5762,2.35487c0.32294,9.46187 0.32294,18.81611 -0.03143,28.58725c-4.74925,-2.20951 -9.14413,-4.83593 -13.61224,-7.9174c0.23446,-16.77357 -2.32593,-15.54075 -13.03623,-15.73564c-3.95875,-6.49859 -8.05298,-12.91913 -11.85043,-19.51067c-10.64276,-18.47346 -17.52011,-38.19044 -19.26287,-59.56036c-0.16139,-1.97914 -0.55061,-3.9397 -0.85894,-6.33221c5.99623,-0.42332 12.01738,-0.42332 18.5068,-0.42332z" fill="#4E525A"/>
  <path id="svg_15" d="m117.53142,1c1.10106,21.76228 5.33103,42.91653 11.40491,63.73682c2.09527,7.18226 4.5738,14.25272 6.50419,21.79359c-8.06297,0.37801 -15.75285,0.33667 -23.44273,0.29533c-1.86411,-7.21688 -3.61485,-14.46532 -5.61429,-21.64451c-5.28427,-18.97373 -8.18222,-38.32216 -9.42753,-57.94881c-0.11525,-1.81647 -0.50578,-3.61547 -0.86223,-5.82751c6.92721,-0.40491 13.94815,-0.40491 21.43768,-0.40491z" fill="#42474F"/>
  <path id="svg_16" d="m243.10661,103.01725c4.39489,2.62642 8.78977,5.25284 13.53902,7.93101c0.35437,14.7393 0.35437,29.42686 -0.0152,44.53938c-4.77475,-1.5407 -9.17995,-3.50633 -13.63662,-5.93985c0.00326,-15.82213 0.05802,-31.17633 0.1128,-46.53054z" fill="#4B4F58"/>
  <path id="svg_17" d="m243.0453,150.01569c4.40518,1.96562 8.81038,3.93125 13.58513,5.94061c0.36957,2.41426 0.36957,4.7848 0.36957,7.59953c-5.02698,-2.64267 -10.05396,-5.72949 -15.18713,-9.45001c0.34002,-1.78583 0.78622,-2.93799 1.23243,-4.09013z" fill="#42545C"/>
  <path id="svg_18" d="m242.99381,149.54779c-0.39472,1.62004 -0.84092,2.7722 -1.39631,4.21834c-2.55822,1.02679 -5.00164,2.37327 -7.45719,2.39584c-20.7409,0.19055 -41.484,0.13925 -62.68893,0.24881c-15.8207,0.02942 -31.17892,-0.02937 -46.99941,0.00083c-12.15382,0.03059 -23.84536,-0.02779 -35.99884,0.00363c-16.15458,0.0289 -31.84724,-0.03202 -48.00164,-0.00127c-6.11724,0.00928 -11.77376,-0.03131 -17.42794,-0.16801c-5.02126,-0.12139 -6.99548,-1.94671 -7.0026,-6.9867c-0.02725,-19.31216 0.07667,-38.62453 0.17136,-58.37503c2.75528,-1.58957 5.42428,-3.58066 8.19517,-3.73431c8.20479,-0.45494 16.44978,-0.18473 25.14384,-0.26033c11.15497,-0.02095 21.84514,0.02031 33.00013,-0.00043c9.82202,-0.02107 19.17923,0.01988 29.00139,-0.0013c8.15483,-0.02078 15.84471,0.02056 23.99948,0.00021c9.82162,-0.02113 19.17836,0.01942 29.00006,-0.00126c10.48795,-0.0205 20.51091,0.02025 30.99884,0.00052c11.4886,-0.0202 22.51225,0.02006 34.00092,-0.00023c11.17532,0.13435 13.73571,-1.09847 13.50125,15.6751c0.01844,15.80926 -0.03632,31.16346 -0.03958,46.98559m-135.34072,-40.73618c-0.56524,-1.73497 -0.82798,-3.6659 -1.78672,-5.14598c-0.84203,-1.29992 -2.46393,-2.09464 -3.74139,-3.11249c-0.78627,1.38655 -2.23105,2.76203 -2.25457,4.16141c-0.18727,11.14329 -0.19886,22.29283 0.0061,33.43551c0.02759,1.49964 1.34732,4.03245 2.44036,4.2541c3.07456,0.62346 3.17937,-1.96062 3.1656,-4.2491c-0.02474,-4.11168 -0.00698,-8.2236 -0.00698,-12.33543c0.47287,-0.02627 0.94574,-0.05252 1.41861,-0.07878c1.34939,4.22143 2.51342,8.51626 4.14127,12.62742c0.63302,1.59871 2.31249,2.7831 3.5153,4.1562c1.17906,-1.41078 2.82905,-2.64193 3.44864,-4.26614c1.83947,-4.82211 3.27316,-9.79904 4.86547,-14.71544c0.98089,5.5594 0.85051,10.86762 1.09627,16.15837c0.04643,0.99947 1.58854,1.92946 2.44052,2.89153c0.93583,-0.88939 2.67303,-1.76689 2.68641,-2.66995c0.17993,-12.14176 0.16805,-24.28766 0.02738,-36.43048c-0.01133,-0.97803 -1.27787,-2.69852 -2.03138,-2.73814c-1.20895,-0.06358 -2.77642,0.71527 -3.6333,1.65038c-0.81967,0.89452 -0.93084,2.44087 -1.34569,3.70326c-2.39938,7.3012 -4.79648,14.60316 -7.61476,23.18503c-2.49075,-7.48654 -4.52948,-13.61443 -6.83714,-20.48128m-31.33544,33.6664c0.57906,-1.54335 1.5588,-3.06146 1.65784,-4.63502c0.2428,-3.85716 0.07935,-7.73987 0.07935,-11.61231c0.52579,-0.15193 1.05158,-0.30386 1.57737,-0.45579c0.79643,1.19597 1.82124,2.30024 2.34531,3.60556c1.41937,3.53523 2.43847,7.24238 4.02933,10.69082c0.48936,1.06075 2.31085,1.50695 3.52236,2.23455c0.63046,-1.402 2.01143,-2.96772 1.74811,-4.17473c-0.73669,-3.37685 -2.40096,-6.54714 -3.19352,-9.91783c-0.3783,-1.60888 -0.13406,-3.8173 0.72891,-5.18641c3.74176,-5.93631 3.56106,-12.09178 0.81147,-18.02418c-2.75385,-5.9416 -8.6764,-4.63647 -13.66983,-4.31699c-1.36469,0.08731 -3.66047,2.4562 -3.69644,3.82616c-0.30078,11.45662 -0.27954,22.92682 -0.02574,34.38564c0.02799,1.26406 2.12514,2.48233 4.08548,3.58053m111.87579,-40.91663c-6.06124,-2.0231 -8.31037,-1.44281 -8.95067,2.74747c-1.75319,11.47321 -3.35512,22.9711 -4.8144,34.4849c-0.12812,1.01104 1.22783,2.2102 1.89448,3.32199c1.22171,-0.73957 2.96597,-1.20043 3.54361,-2.28349c0.88334,-1.65622 0.96173,-3.74173 1.33601,-5.43746c4.459,-1.37308 6.58443,-0.20795 6.94516,4.36324c0.09973,1.26379 2.20019,2.3697 3.38269,3.54805c0.73993,-1.53632 2.27328,-3.17226 2.09482,-4.59324c-1.48694,-11.84008 -3.28929,-23.64055 -5.4317,-36.15146m39.17207,0.52694c-7.55756,-3.3502 -13.83046,-0.85637 -14.27296,6.33564c-0.54101,8.79301 -0.36353,17.65912 0.04254,26.46877c0.19049,4.13261 2.88703,7.07124 7.30748,7.67253c4.01085,0.54559 8.24063,-0.60699 9.01315,-4.53062c2.24197,-11.38695 3.21245,-22.94723 -0.55089,-34.31922c-0.14505,-0.43831 -0.62503,-0.76578 -1.53932,-1.6271m-161.58699,29.06079c0.01966,-7.1537 0.26528,-14.31614 -0.01125,-21.45837c-0.22836,-5.89817 -3.76684,-9.1585 -9.08079,-9.17071c-5.35304,-0.01231 -8.80562,3.24056 -8.9567,9.2067c-0.20626,8.14471 -0.20153,16.31063 0.15054,24.44852c0.27236,6.29495 5.73235,9.88165 11.5841,8.05561c4.99569,-1.55889 6.18279,-5.55724 6.3141,-11.08175m84.39129,-14.51464c0.17187,5.9791 -0.03979,12.00165 0.63106,17.92423c0.58757,5.18732 4.98477,8.37299 9.76006,8.08264c4.33281,-0.26344 7.93855,-4.16905 8.1264,-9.26733c0.03989,-1.08216 -1.28389,-3.14281 -1.93553,-3.12525c-1.28102,0.03452 -2.63786,1.07425 -3.76666,1.95125c-1.34885,1.04798 -2.49169,2.3611 -3.72376,3.55939c-1.05676,-1.51616 -2.93652,-2.9856 -3.02574,-4.5567c-0.35809,-6.30629 -0.39563,-12.65815 -0.01669,-18.961c0.10362,-1.7238 2.0726,-3.33545 3.18558,-4.99857c1.1916,1.29303 2.25036,2.75547 3.61616,3.82633c1.12412,0.88135 2.61856,1.74283 3.93645,1.72439c0.61418,-0.00859 1.77156,-2.1586 1.69954,-3.27449c-0.34279,-5.31089 -3.73714,-8.80834 -8.29534,-8.99174c-4.93516,-0.19858 -8.68237,2.86868 -9.67198,8.20843c-0.42058,2.26943 -0.36094,4.62786 -0.51955,7.89842m-116.71521,21.27788c0,-4.09126 0,-8.18254 0,-11.92874c1.05804,-0.47195 1.34123,-0.6919 1.64073,-0.71696c2.27162,-0.19009 4.82524,0.23708 4.92305,-3.34288c0.08452,-3.09341 -1.78605,-3.32978 -4.14906,-3.63948c-0.87765,-0.11502 -2.14965,-1.5163 -2.25222,-2.44081c-0.30178,-2.72011 -0.10763,-5.49523 -0.10763,-8.49923c2.02309,-0.10163 3.31891,-0.23978 4.61165,-0.21525c2.15386,0.04088 3.90201,-0.04843 3.96534,-3.02526c0.06336,-2.97857 -1.33593,-3.75525 -3.94595,-3.64527c-2.3213,0.09781 -4.65644,0.1336 -6.9736,-0.00367c-2.89316,-0.17137 -3.69876,1.22015 -3.68016,3.89283c0.07975,11.46028 -0.05436,22.92299 0.15023,34.38015c0.02333,1.30623 1.68553,2.58319 2.58782,3.87374c1.07515,-1.27654 2.1503,-2.55307 3.2298,-4.68917m172.80529,-3.6399c-0.00041,-9.78495 -0.00908,-19.56991 0.00511,-29.35483c0.00317,-2.19235 0.20703,-4.96155 -2.91486,-4.37084c-1.23433,0.23356 -2.81247,2.9222 -2.84907,4.52462c-0.2499,10.94016 -0.13628,21.88874 -0.12668,32.83461c0.00188,2.14263 -0.3642,4.59474 2.86856,4.73613c3.33008,0.14566 3.03552,-2.27297 3.01682,-4.45774c-0.00853,-0.99499 -0.00045,-1.99014 0.00012,-3.91195m-63.31797,-25.61131c-0.00016,-0.99495 0.02132,-1.99047 -0.00486,-2.98473c-0.05896,-2.23808 0.64413,-5.08799 -2.8566,-5.23497c-4.06201,-0.17054 -3.06938,3.04892 -3.08125,5.33769c-0.05579,10.77827 -0.02315,21.55701 -0.02512,32.33557c-0.0004,2.15038 -0.4157,4.60106 2.95491,4.48378c3.14064,-0.10927 3.02672,-2.38092 3.02133,-4.62457c-0.02269,-9.45192 -0.00886,-18.90393 -0.00841,-29.31277z" fill="#09D6D3"/>
  <path id="svg_19" d="m130.00113,169.00143c-0.16156,0.27527 -0.3065,0.56289 -0.50035,0.81257c-0.04421,0.05693 -0.25733,-0.01728 -0.39272,-0.03113c0.19077,-0.21758 0.38155,-0.43515 0.73072,-0.71891c0.15838,-0.06619 0.16122,-0.06396 0.16235,-0.06253z" fill="#41454E"/>
  <path id="svg_20" d="m107.78755,109.18109c2.1732,6.49737 4.21193,12.62526 6.70268,20.1118c2.81828,-8.58187 5.21538,-15.88383 7.61476,-23.18503c0.41485,-1.26239 0.52602,-2.80874 1.34569,-3.70326c0.85688,-0.93511 2.42435,-1.71396 3.6333,-1.65038c0.75351,0.03962 2.02005,1.76011 2.03138,2.73814c0.14067,12.14282 0.15255,24.28872 -0.02738,36.43048c-0.01338,0.90306 -1.75058,1.78056 -2.68641,2.66993c-0.85198,-0.96205 -2.39409,-1.89204 -2.44052,-2.89151c-0.24576,-5.29075 -0.11538,-10.59897 -1.09627,-16.15837c-1.59231,4.9164 -3.026,9.89333 -4.86547,14.71544c-0.61959,1.62421 -2.26958,2.85536 -3.44865,4.26614c-1.2028,-1.3731 -2.88227,-2.55749 -3.51529,-4.1562c-1.62785,-4.11116 -2.79188,-8.40599 -4.14127,-12.62742c-0.47287,0.02626 -0.94574,0.05251 -1.41861,0.07878c0,4.11183 -0.01776,8.22375 0.00698,12.33543c0.01377,2.28848 -0.09104,4.87256 -3.1656,4.2491c-1.09304,-0.22165 -2.41277,-2.75446 -2.44036,-4.2541c-0.20496,-11.14268 -0.19337,-22.29222 -0.0061,-33.43551c0.02352,-1.39938 1.4683,-2.77486 2.25457,-4.16141c1.27746,1.01785 2.89936,1.81257 3.74139,3.11249c0.95874,1.48008 1.22148,3.41101 1.92118,5.51546z" fill="#252E37"/>
  <path id="svg_21" d="m75.90623,142.54866c-1.54892,-1.16885 -3.64607,-2.38712 -3.67406,-3.65118c-0.2538,-11.45882 -0.27504,-22.92902 0.02574,-34.38564c0.03597,-1.36996 2.33175,-3.73885 3.69644,-3.82616c4.99343,-0.31948 10.91598,-1.62461 13.66983,4.31699c2.74959,5.9324 2.93029,12.08787 -0.81147,18.02418c-0.86297,1.36911 -1.10721,3.57753 -0.72891,5.18641c0.79256,3.37069 2.45683,6.54098 3.19352,9.91783c0.26332,1.20701 -1.11765,2.77273 -1.74811,4.17473c-1.21151,-0.7276 -3.033,-1.1738 -3.52236,-2.23455c-1.59086,-3.44844 -2.60996,-7.15559 -4.02933,-10.69082c-0.52407,-1.30532 -1.54888,-2.40959 -2.34531,-3.60556c-0.52579,0.15193 -1.05158,0.30386 -1.57737,0.45579c0,3.87244 0.16345,7.75515 -0.07935,11.61231c-0.09904,1.57356 -1.07878,3.09167 -2.06926,4.70567m7.08275,-23.56931c3.84765,-2.74797 3.49491,-6.67604 1.82062,-10.04504c-0.70807,-1.42477 -3.9018,-1.61424 -6.77058,-2.65803c0,4.00276 0.21262,6.63793 -0.05252,9.22412c-0.35042,3.41785 1.42696,3.93699 5.00248,3.47895z" fill="#24313A"/>
  <path id="svg_22" d="m188.41107,101.91061c1.92478,12.16168 3.72713,23.96215 5.21407,35.80223c0.17846,1.42098 -1.35489,3.05692 -2.09482,4.59324c-1.1825,-1.17835 -3.28296,-2.28426 -3.38269,-3.54805c-0.36073,-4.57119 -2.48616,-5.73632 -6.94516,-4.36324c-0.37428,1.69573 -0.45267,3.78124 -1.33601,5.43746c-0.57764,1.08306 -2.3219,1.54392 -3.54361,2.28349c-0.66665,-1.11179 -2.0226,-2.31095 -1.89448,-3.32199c1.45928,-11.5138 3.06121,-23.01169 4.8144,-34.4849c0.6403,-4.19028 2.88943,-4.77057 9.1683,-2.39824m-2.9487,19.29229c-0.32567,-1.32524 -0.65133,-2.65049 -1.12164,-4.56427c-3.26262,8.10514 -2.88196,10.1996 1.59686,9.74516c-0.10505,-1.44478 -0.21113,-2.90347 -0.47522,-5.18089z" fill="#24303A"/>
  <path id="svg_23" d="m227.66069,102.32942c0.61911,0.62022 1.09909,0.94769 1.24414,1.386c3.76334,11.37199 2.79286,22.93227 0.55089,34.31922c-0.77252,3.92363 -5.0023,5.07621 -9.01315,4.53062c-4.42045,-0.60129 -7.11699,-3.53992 -7.30748,-7.67253c-0.40607,-8.80965 -0.58355,-17.67576 -0.04254,-26.46877c0.4425,-7.19201 6.7154,-9.68584 14.56814,-6.09454m-7.42802,5.54979c-3.61075,8.42603 -1.67658,17.12117 -1.08338,25.72144c0.05469,0.79284 1.89621,2.0753 2.84769,2.02342c0.97856,-0.05332 2.67149,-1.43929 2.69725,-2.28345c0.23647,-7.7512 0.31236,-15.51631 0.02882,-23.26249c-0.03376,-0.92205 -2.4969,-1.75516 -4.49038,-2.19892z" fill="#24303A"/>
  <path id="svg_24" d="m65.7742,131.60156c-0.12699,5.07206 -1.31409,9.07041 -6.30978,10.6293c-5.85175,1.82604 -11.31174,-1.76066 -11.5841,-8.05561c-0.35207,-8.13789 -0.3568,-16.30381 -0.15054,-24.44852c0.15108,-5.96614 3.60366,-9.21901 8.9567,-9.2067c5.31395,0.01221 8.85243,3.27254 9.08079,9.17071c0.27653,7.14223 0.03091,14.30467 0.00693,21.91082m-9.19045,-24.41597c-1.09183,1.65445 -3.02224,3.25845 -3.12535,4.97238c-0.37704,6.26741 -0.37283,12.58534 0.0101,18.85233c0.10135,1.65865 2.07525,3.20287 3.18932,4.79964c1.11363,-1.57889 3.08859,-3.10553 3.18807,-4.74591c0.38007,-6.26751 0.3381,-12.58033 0.03722,-18.85627c-0.08052,-1.67965 -1.63969,-3.2884 -3.29936,-5.02217z" fill="#242F38"/>
  <path id="svg_25" d="m150.16981,116.15817c0.15861,-2.79426 0.09897,-5.15269 0.51955,-7.42212c0.98961,-5.33975 4.73682,-8.40701 9.67198,-8.20843c4.5582,0.1834 7.95255,3.68085 8.29534,8.99174c0.07202,1.11589 -1.08536,3.2659 -1.69954,3.27449c-1.31789,0.01844 -2.81233,-0.84304 -3.93645,-1.72439c-1.3658,-1.07086 -2.42456,-2.5333 -3.61616,-3.82633c-1.11298,1.66312 -3.08196,3.27477 -3.18558,4.99857c-0.37894,6.30285 -0.3414,12.65471 0.01669,18.961c0.08922,1.5711 1.96898,3.04054 3.02574,4.5567c1.23207,-1.19829 2.37491,-2.51141 3.72376,-3.55939c1.1288,-0.877 2.48564,-1.91673 3.76666,-1.95125c0.65164,-0.01756 1.97542,2.04309 1.93553,3.12525c-0.18785,5.09828 -3.79359,9.00389 -8.1264,9.26733c-4.77529,0.29035 -9.17249,-2.89532 -9.76006,-8.08264c-0.67085,-5.92258 -0.45919,-11.94513 -0.63106,-18.40053z" fill="#24313B"/>
  <path id="svg_26" d="m33.45242,138.34213c-1.07732,1.70632 -2.15247,2.98285 -3.22762,4.25939c-0.90229,-1.29055 -2.56449,-2.56751 -2.58782,-3.87374c-0.20459,-11.45716 -0.07048,-22.91987 -0.15023,-34.38015c-0.0186,-2.67268 0.787,-4.0642 3.68016,-3.89283c2.31716,0.13727 4.6523,0.10148 6.9736,0.00367c2.61002,-0.10998 4.00931,0.6667 3.94595,3.64527c-0.06333,2.97683 -1.81148,3.06614 -3.96534,3.02526c-1.29274,-0.02453 -2.58856,0.11362 -4.61165,0.21525c0,3.004 -0.19415,5.77912 0.10763,8.49923c0.10257,0.92451 1.37457,2.32579 2.25222,2.44081c2.36301,0.3097 4.23358,0.54607 4.14906,3.63948c-0.09781,3.57996 -2.65143,3.15279 -4.92305,3.34288c-0.2995,0.02506 -0.58269,0.24501 -1.64073,0.71696c0,3.7462 0,7.83748 -0.00218,12.35852z" fill="#24303A"/>
  <path id="svg_27" d="m206.25987,134.73581c-0.00055,1.45845 -0.00863,2.4536 -0.0001,3.44859c0.0187,2.18477 0.31326,4.6034 -3.01682,4.45774c-3.23276,-0.14139 -2.86668,-2.5935 -2.86856,-4.73613c-0.0096,-10.94587 -0.12322,-21.89445 0.12668,-32.83461c0.0366,-1.60242 1.61474,-4.29106 2.84907,-4.52462c3.12189,-0.59071 2.91803,2.17849 2.91486,4.37084c-0.01419,9.78492 -0.00552,19.56988 -0.00513,29.81819z" fill="#233841"/>
  <path id="svg_28" d="m142.94192,109.13957c-0.00045,9.93041 -0.01428,19.38242 0.00841,28.83434c0.00539,2.24365 0.11931,4.5153 -3.02133,4.62457c-3.37061,0.11728 -2.95531,-2.3334 -2.95491,-4.48378c0.00197,-10.77856 -0.03067,-21.5573 0.02512,-32.33557c0.01187,-2.28877 -0.98076,-5.50823 3.08125,-5.33769c3.50073,0.14698 2.79764,2.99689 2.8566,5.23497c0.02618,0.99426 0.0047,1.98978 0.00486,3.46316z" fill="#24303A"/>
  <path id="svg_29" d="m82.55923,119.03162c-3.14577,0.40577 -4.92315,-0.11337 -4.57273,-3.53122c0.26514,-2.58619 0.05252,-5.22136 0.05252,-9.22412c2.86878,1.04379 6.06251,1.23326 6.77058,2.65803c1.67429,3.369 2.02703,7.29707 -2.25037,10.09731z" fill="#0AD0CE"/>
  <path id="svg_30" d="m185.54138,121.61227c0.18508,1.86805 0.29116,3.32674 0.39621,4.77152c-4.47882,0.45444 -4.85948,-1.64002 -1.59686,-9.74516c0.47031,1.91378 0.79597,3.23903 1.20065,4.97364z" fill="#0CC7C5"/>
  <path id="svg_31" d="m220.56088,107.66393c1.66527,0.65904 4.12841,1.49215 4.16217,2.4142c0.28354,7.74618 0.20765,15.51129 -0.02882,23.26249c-0.02576,0.84416 -1.71869,2.23013 -2.69725,2.28345c-0.95148,0.05188 -2.793,-1.23058 -2.84769,-2.02342c-0.5932,-8.60027 -2.52737,-17.29541 1.41159,-25.93672z" fill="#0ACECC"/>
  <path id="svg_32" d="m56.97341,107.23183c1.27001,1.68753 2.82918,3.29628 2.9097,4.97593c0.30088,6.27594 0.34285,12.58876 -0.03722,18.85627c-0.09948,1.64038 -2.07444,3.16702 -3.18806,4.74591c-1.11408,-1.59677 -3.08798,-3.14099 -3.18933,-4.79964c-0.38293,-6.26699 -0.38714,-12.58492 -0.0101,-18.85233c0.10311,-1.71393 2.03352,-3.31793 3.51501,-4.92614z" fill="#0ACECC"/>
  <text transform="matrix(2.01134, 0, 0, 1.54354, -188.394, -123.23)" xml:space="preserve" text-anchor="start" font-family="'Changa'" font-size="24" id="svg_33" y="215.23932" x="126.97746" stroke-width="0" stroke="#000" fill="#ffffff">v0.5.6</text>
 </g>
</svg>
