<svg version="1.1" id="Layer_1" xmlns="http://www.w3.org/2000/svg" xmlns:xlink="http://www.w3.org/1999/xlink" x="0px" y="0px"
	 width="100%" viewBox="0 0 256 256" enable-background="new 0 0 256 256" xml:space="preserve">
<path fill="#393D46" opacity="1.000000" stroke="none" 
	d="
M172.000000,257.000000 
	C150.312439,257.000000 128.624878,257.000000 106.362610,256.670471 
	C104.525032,254.405502 103.523735,252.221970 101.959290,250.572601 
	C84.148117,231.794662 69.684090,210.586136 56.331200,188.524384 
	C50.160782,178.329559 44.458889,167.967560 41.451866,156.413834 
	C57.272808,156.383209 72.632011,156.444077 88.015785,156.860718 
	C89.811600,163.011017 91.529922,168.822876 93.415413,174.580002 
	C93.675941,175.375488 94.758789,175.905701 95.469826,176.548889 
	C97.888672,178.737000 100.840401,180.553909 102.650101,183.163467 
	C118.778648,206.420502 137.666519,227.095932 159.448090,245.171448 
	C163.863403,248.835510 167.827744,253.043030 172.000000,257.000000 
z"/>
<path fill="#343942" opacity="1.000000" stroke="none" 
	d="
M40.990124,156.505341 
	C44.458889,167.967560 50.160782,178.329559 56.331200,188.524384 
	C69.684090,210.586136 84.148117,231.794662 101.959290,250.572601 
	C103.523735,252.221970 104.525032,254.405502 105.893951,256.670471 
	C91.979103,257.000000 77.958214,257.000000 63.360001,256.674164 
	C61.893707,254.954514 61.110306,253.478653 60.100193,252.178970 
	C38.694538,224.636932 21.605759,194.582153 7.751426,162.621933 
	C5.738487,157.978317 3.261994,153.535645 1.000001,149.000000 
	C1.000000,116.312439 1.000000,83.624878 1.358282,50.409943 
	C3.444108,46.236984 5.171650,42.591396 7.175407,39.215874 
	C8.969355,47.684444 10.164437,55.959923 12.096587,64.059570 
	C13.986112,71.980537 16.627260,79.722198 18.665871,87.817505 
	C17.588474,90.187424 16.105936,92.275703 16.085165,94.378433 
	C15.904398,112.678078 15.937207,130.980530 16.020670,149.281647 
	C16.043556,154.299759 18.018211,156.129150 23.038803,156.244492 
	C29.021418,156.381912 35.006252,156.422684 40.990124,156.505341 
z"/>
<path fill="#3C414A" opacity="1.000000" stroke="none" 
	d="
M172.468658,257.000000 
	C167.827744,253.043030 163.863403,248.835510 159.448090,245.171448 
	C137.666519,227.095932 118.778648,206.420502 102.650101,183.163467 
	C100.840401,180.553909 97.888672,178.737000 95.469826,176.548889 
	C94.758789,175.905701 93.675941,175.375488 93.415413,174.580002 
	C91.529922,168.822876 89.811600,163.011017 88.477715,156.770905 
	C100.933838,156.385849 112.952606,156.446365 125.001572,156.852570 
	C128.708221,163.560516 132.384659,169.922745 136.147339,176.434219 
	C137.054901,174.753204 137.951080,173.093262 138.847244,171.433334 
	C139.333389,171.563080 139.819519,171.692825 140.305664,171.822571 
	C140.305664,173.148514 140.184891,174.488403 140.335922,175.796921 
	C140.529129,177.470840 140.405304,179.549896 141.340073,180.714081 
	C154.200943,196.731415 168.363693,211.524612 185.397537,223.117004 
	C198.308594,231.903641 211.841095,239.777100 224.909103,248.353790 
	C223.132858,249.480057 221.558609,250.337799 219.953461,251.133255 
	C215.976501,253.104019 211.985413,255.046295 208.000000,257.000000 
	C196.312439,257.000000 184.624878,257.000000 172.468658,257.000000 
M128.839615,169.907410 
	C128.839615,169.907410 129.118317,170.115692 129.118317,170.115692 
	C129.118317,170.115692 128.945770,169.815628 128.839615,169.907410 
z"/>
<path fill="#454951" opacity="1.000000" stroke="none" 
	d="
M257.000000,167.000000 
	C257.000000,180.354233 257.000000,193.708450 256.628021,207.525375 
	C255.115479,210.652328 253.974915,213.316605 252.496399,215.885010 
	C230.409073,207.069580 210.501923,195.298584 192.871811,179.808899 
	C191.744049,178.818054 190.484787,177.061905 190.585251,175.762146 
	C190.870178,172.075989 188.708023,171.569855 185.952438,170.621201 
	C179.081970,168.255966 174.229370,163.600433 172.454666,156.415268 
	C194.946930,156.252625 216.978088,156.180130 239.124344,156.423096 
	C245.159622,160.159027 251.079803,163.579514 257.000000,167.000000 
z"/>
<path fill="#3C4049" opacity="1.000000" stroke="none" 
	d="
M50.000000,1.000000 
	C56.021152,1.000000 62.042301,1.000000 68.532890,1.442323 
	C69.676292,8.837058 69.973396,15.851181 71.099716,22.729521 
	C73.753662,38.937004 76.762825,55.087090 79.715492,71.244453 
	C80.669388,76.464279 81.895058,81.634438 82.531586,86.889359 
	C72.043274,86.909653 62.019779,86.867905 51.902340,86.459778 
	C44.744377,60.142593 41.207100,33.619511 39.191097,6.630539 
	C42.951195,4.582181 46.475597,2.791090 50.000000,1.000000 
z"/>
<path fill="#4B5058" opacity="1.000000" stroke="none" 
	d="
M171.000000,1.000000 
	C179.687561,1.000000 188.375137,1.000000 197.541504,1.429508 
	C199.763245,25.389652 206.359406,47.430141 218.376938,67.779175 
	C222.158554,74.182518 226.118744,80.480400 229.532166,86.887115 
	C218.043488,86.907417 207.019821,86.867157 195.947403,86.471344 
	C192.073120,77.688805 188.142944,69.307465 184.443375,60.825542 
	C176.126236,41.757053 173.128891,21.471001 171.000000,1.000000 
z"/>
<path fill="#40444D" opacity="1.000000" stroke="none" 
	d="
M82.996407,86.827316 
	C81.895058,81.634438 80.669388,76.464279 79.715492,71.244453 
	C76.762825,55.087090 73.753662,38.937004 71.099716,22.729521 
	C69.973396,15.851181 69.676292,8.837058 69.001160,1.442323 
	C77.687561,1.000000 86.375130,1.000000 95.625092,1.404915 
	C96.450195,3.616946 96.840721,5.415952 96.955971,7.232424 
	C98.201279,26.859072 101.099228,46.207500 106.383499,65.181229 
	C108.382942,72.360420 110.133682,79.608864 111.532837,86.887863 
	C101.710732,86.909096 92.353569,86.868202 82.996407,86.827316 
z"/>
<path fill="#484C55" opacity="1.000000" stroke="none" 
	d="
M170.531342,1.000000 
	C173.128891,21.471001 176.126236,41.757053 184.443375,60.825542 
	C188.142944,69.307465 192.073120,77.688805 195.482437,86.531815 
	C185.043274,86.907074 175.020325,86.866325 164.974976,86.444901 
	C163.758743,82.617920 162.725662,79.105782 161.345261,75.735909 
	C151.529358,51.773197 145.948074,26.896282 145.000000,1.000000 
	C153.354233,1.000000 161.708466,1.000000 170.531342,1.000000 
z"/>
<path fill="#454A52" opacity="1.000000" stroke="none" 
	d="
M144.531342,1.000000 
	C145.948074,26.896282 151.529358,51.773197 161.345261,75.735909 
	C162.725662,79.105782 163.758743,82.617920 164.509979,86.506126 
	C154.710678,86.907486 145.353943,86.866936 135.905411,86.468727 
	C133.510132,78.989540 131.031601,71.919083 128.936325,64.736816 
	C122.862450,43.916527 118.632477,22.762276 118.000000,1.000000 
	C126.687569,1.000000 135.375137,1.000000 144.531342,1.000000 
z"/>
<path fill="#30353F" opacity="1.000000" stroke="none" 
	d="
M1.000001,149.468658 
	C3.261994,153.535645 5.738487,157.978317 7.751426,162.621933 
	C21.605759,194.582153 38.694538,224.636932 60.100193,252.178970 
	C61.110306,253.478653 61.893707,254.954514 62.891342,256.674164 
	C58.975456,257.000000 54.950912,257.000000 50.391674,256.645691 
	C48.706753,255.747299 47.595200,255.092331 46.400528,254.675751 
	C27.839256,248.203461 13.993119,236.548996 6.072085,218.270691 
	C4.555725,214.771576 2.699449,211.419769 0.999998,208.000000 
	C1.000000,188.645767 1.000000,169.291550 1.000001,149.468658 
z"/>
<path fill="#4E525A" opacity="1.000000" stroke="none" 
	d="
M229.997192,86.826553 
	C226.118744,80.480400 222.158554,74.182518 218.376938,67.779175 
	C206.359406,47.430141 199.763245,25.389652 198.010162,1.429508 
	C201.030594,1.000000 204.061188,1.000000 207.507172,1.378172 
	C210.959335,3.128911 213.996109,4.501477 217.028641,6.319811 
	C219.417786,36.032970 232.432556,60.226379 252.609192,80.945435 
	C253.663879,82.028496 255.518036,82.333023 257.000000,83.000000 
	C257.000000,92.020897 257.000000,101.041786 256.643066,110.479912 
	C254.554565,110.039711 252.805389,109.215790 251.095490,108.317123 
	C248.418564,106.910210 245.768188,105.452759 243.033401,103.558533 
	C242.942352,102.280869 242.891663,101.460579 242.911469,100.641998 
	C243.253098,86.522621 240.729584,86.846085 229.997192,86.826553 
z"/>
<path fill="#42474F" opacity="1.000000" stroke="none" 
	d="
M117.531418,1.000000 
	C118.632477,22.762276 122.862450,43.916527 128.936325,64.736816 
	C131.031601,71.919083 133.510132,78.989540 135.440521,86.530411 
	C127.377548,86.908417 119.687668,86.867081 111.997787,86.825745 
	C110.133682,79.608864 108.382942,72.360420 106.383499,65.181229 
	C101.099228,46.207500 98.201279,26.859072 96.955971,7.232424 
	C96.840721,5.415952 96.450195,3.616946 96.093742,1.404915 
	C103.020950,1.000000 110.041893,1.000000 117.531418,1.000000 
z"/>
<path fill="#51555D" opacity="1.000000" stroke="none" 
	d="
M257.000000,82.531342 
	C255.518036,82.333023 253.663879,82.028496 252.609192,80.945435 
	C232.432556,60.226379 219.417786,36.032970 217.393570,6.392892 
	C219.740265,6.804114 221.869476,7.334294 223.671494,8.411742 
	C239.227844,17.713087 250.243271,30.619646 255.125443,48.364998 
	C255.308807,49.031464 256.355591,49.460384 257.000000,50.000000 
	C257.000000,60.687561 257.000000,71.375122 257.000000,82.531342 
z"/>
<path fill="#000000" opacity="1.000000" stroke="none" 
	d="
M0.999998,208.468658 
	C2.699449,211.419769 4.555725,214.771576 6.072085,218.270691 
	C13.993119,236.548996 27.839256,248.203461 46.400528,254.675751 
	C47.595200,255.092331 48.706753,255.747299 49.928490,256.645691 
	C33.739925,257.000000 17.479853,257.000000 1.000000,257.000000 
	C1.000000,240.979782 1.000000,224.958542 0.999998,208.468658 
z"/>
<path fill="#000000" opacity="1.000000" stroke="none" 
	d="
M252.834351,215.980865 
	C253.974915,213.316605 255.115479,210.652328 256.628021,207.994034 
	C257.000000,224.260071 257.000000,240.520142 257.000000,257.000000 
	C240.979782,257.000000 224.958542,257.000000 208.468658,257.000000 
	C211.985413,255.046295 215.976501,253.104019 219.953461,251.133255 
	C221.558609,250.337799 223.132858,249.480057 225.254410,248.292145 
	C238.546173,240.450958 247.654694,229.878723 252.834351,215.980865 
z"/>
<path fill="#000000" opacity="1.000000" stroke="none" 
	d="
M49.531342,1.000000 
	C46.475597,2.791090 42.951195,4.582181 38.822540,6.675733 
	C28.008123,10.630509 20.566917,17.917139 14.089012,26.141981 
	C11.096943,29.940937 9.259913,34.649605 6.899194,38.945812 
	C5.171650,42.591396 3.444108,46.236984 1.358282,49.941284 
	C1.000000,33.739925 1.000000,17.479853 1.000000,1.000000 
	C17.020226,1.000000 33.041454,1.000000 49.531342,1.000000 
z"/>
<path fill="#000000" opacity="1.000000" stroke="none" 
	d="
M257.000000,49.531342 
	C256.355591,49.460384 255.308807,49.031464 255.125443,48.364998 
	C250.243271,30.619646 239.227844,17.713087 223.671494,8.411742 
	C221.869476,7.334294 219.740265,6.804114 217.397812,5.947124 
	C213.996109,4.501477 210.959335,3.128911 207.961273,1.378172 
	C224.260071,1.000000 240.520142,1.000000 257.000000,1.000000 
	C257.000000,17.020226 257.000000,33.041454 257.000000,49.531342 
z"/>
<path fill="#4B4F58" opacity="1.000000" stroke="none" 
	d="
M243.106567,104.016716 
	C245.768188,105.452759 248.418564,106.910210 251.095490,108.317123 
	C252.805389,109.215790 254.554565,110.039711 256.643066,110.948570 
	C257.000000,126.020897 257.000000,141.041794 256.653259,156.441971 
	C251.757248,154.852539 247.208008,152.883804 242.735352,150.456696 
	C242.910141,134.671112 243.008347,119.343918 243.106567,104.016716 
z"/>
<path fill="#42545C" opacity="1.000000" stroke="none" 
	d="
M242.658768,150.915085 
	C247.208008,152.883804 251.757248,154.852539 256.653259,156.910629 
	C257.000000,160.030594 257.000000,163.061188 257.000000,166.545898 
	C251.079803,163.579514 245.159622,160.159027 239.360245,156.192764 
	C240.540298,154.069687 241.599533,152.492386 242.658768,150.915085 
z"/>
<path fill="#09D6D3" opacity="1.000000" stroke="none" 
	d="
M242.735352,150.456696 
	C241.599533,152.492386 240.540298,154.069687 239.245163,155.877319 
	C216.978088,156.180130 194.946930,156.252625 171.993896,156.329407 
	C155.705139,156.391434 140.338257,156.449158 124.971367,156.506882 
	C112.952606,156.446365 100.933838,156.385849 88.453148,156.415161 
	C72.632011,156.444077 57.272808,156.383209 41.451866,156.413834 
	C35.006252,156.422684 29.021418,156.381912 23.038803,156.244492 
	C18.018211,156.129150 16.043556,154.299759 16.020670,149.281647 
	C15.937207,130.980530 15.904398,112.678078 16.085165,94.378433 
	C16.105936,92.275703 17.588474,90.187424 19.062979,87.714005 
	C30.487228,87.165771 41.241760,86.995972 51.996288,86.826172 
	C62.019779,86.867905 72.043274,86.909653 82.531586,86.889359 
	C92.353569,86.868202 101.710732,86.909096 111.532837,86.887863 
	C119.687668,86.867081 127.377548,86.908417 135.532318,86.888069 
	C145.353943,86.866936 154.710678,86.907486 164.532379,86.886810 
	C175.020325,86.866325 185.043274,86.907074 195.531204,86.887360 
	C207.019821,86.867157 218.043488,86.907417 229.532166,86.887115 
	C240.729584,86.846085 243.253098,86.522621 242.911469,100.641998 
	C242.891663,101.460579 242.942352,102.280869 243.033386,103.558533 
	C243.008347,119.343918 242.910141,134.671112 242.735352,150.456696 
M107.454559,127.249123 
	C108.639954,131.051514 109.650513,134.922241 111.096565,138.622757 
	C111.677132,140.108444 113.214478,141.220261 114.316345,142.502228 
	C115.556740,141.176422 117.336021,140.056946 117.937286,138.486465 
	C119.799095,133.623474 121.212608,128.588837 122.800140,123.620834 
	C123.831390,128.355667 123.746300,132.917053 123.869606,137.472794 
	C123.925842,139.550995 122.822952,142.866272 126.633385,142.360046 
	C127.689369,142.219757 129.083649,139.321198 129.118683,137.662720 
	C129.343491,127.019562 129.341202,116.367126 129.125748,105.723579 
	C129.090210,103.968422 127.637489,102.241959 126.839714,100.502235 
	C125.395142,101.982895 123.276749,103.214958 122.622841,104.987328 
	C119.820213,112.583771 117.448868,120.339348 114.514252,129.273056 
	C111.425705,120.070328 108.870255,112.046074 105.960304,104.152504 
	C105.418243,102.682121 103.451996,101.736763 102.143021,100.549110 
	C101.350777,101.930939 99.894211,103.301826 99.871223,104.696335 
	C99.684784,116.006660 99.684547,127.322823 99.877296,138.632950 
	C99.900085,139.970078 101.429085,141.281525 102.259888,142.604889 
	C103.330414,141.293228 105.146545,140.075165 105.325211,138.651566 
	C105.777626,135.046768 105.445518,131.347916 105.577492,127.692139 
	C105.591820,127.295235 106.586479,126.933723 107.454559,127.249123 
M89.959572,121.178642 
	C90.255730,116.622284 91.357155,111.936928 90.652893,107.540840 
	C89.679306,101.463692 78.122719,97.502060 73.402283,101.176880 
	C72.639694,101.770538 72.155418,103.178566 72.147491,104.214767 
	C72.058556,115.849480 71.998047,127.486847 72.222931,139.117828 
	C72.245834,140.302628 74.174873,141.450546 75.219376,142.615585 
	C76.163383,141.395386 77.814651,140.233704 77.921379,138.944199 
	C78.268715,134.747528 78.051399,130.504120 78.051399,126.278709 
	C78.543312,126.119957 79.035225,125.961205 79.527138,125.802452 
	C80.348869,126.956406 81.425797,128.006912 81.943466,129.284119 
	C83.374825,132.815567 84.388451,136.526062 85.971191,139.980698 
	C86.469223,141.067749 88.246788,141.568588 89.438705,142.337723 
	C90.111588,140.953812 91.544853,139.420700 91.308296,138.215271 
	C90.707939,135.156052 89.577042,132.141983 88.250183,129.300537 
	C86.870209,126.345352 86.993706,123.955605 89.959572,121.178642 
M175.866119,142.027161 
	C182.649384,143.036789 178.760498,136.146301 182.084503,134.121704 
	C185.238297,133.249191 187.890503,133.729233 187.957108,138.304550 
	C187.991394,140.660187 188.398453,142.850357 191.554794,142.271606 
	C194.738663,141.687836 193.957565,139.357742 193.636642,137.183182 
	C192.087616,126.687119 190.425385,116.202644 189.184631,105.669144 
	C188.785965,102.284447 187.916885,100.532547 184.237991,100.424919 
	C180.494888,100.315399 179.404999,102.257736 178.997971,105.480988 
	C178.187637,111.897888 177.021744,118.272491 176.312531,124.698769 
	C175.690582,130.334396 175.492294,136.016769 175.866119,142.027161 
M213.763290,137.248138 
	C215.519913,141.653717 219.003128,143.125961 223.392883,142.545685 
	C227.795227,141.963715 230.449844,138.917374 230.637482,134.806152 
	C231.039154,126.004608 231.114151,117.156914 230.678024,108.360100 
	C230.416382,103.082886 226.600510,100.350838 221.509216,100.511055 
	C216.702499,100.662331 213.159515,103.528328 213.048828,108.583183 
	C212.845383,117.874687 213.280380,127.180168 213.763290,137.248138 
M65.165878,106.715240 
	C62.682426,101.402046 59.771732,99.762184 54.630527,100.751472 
	C49.623981,101.714836 47.813599,105.324539 47.718769,109.812538 
	C47.550041,117.798233 47.603458,125.795723 47.837040,133.780304 
	C47.991940,139.075058 51.298828,142.358368 56.135300,142.657379 
	C61.137665,142.966644 65.350365,139.805359 65.563225,134.422363 
	C65.917435,125.465187 65.526299,116.478531 65.165878,106.715240 
M150.661652,134.446274 
	C152.412506,140.125320 156.204010,143.134888 160.942093,142.606522 
	C165.098694,142.143005 168.409470,138.444962 168.667862,133.477081 
	C168.725189,132.375137 167.484924,130.262482 166.849594,130.265350 
	C165.553253,130.271240 164.130249,131.230484 163.002686,132.109177 
	C161.654114,133.160110 160.559891,134.537415 159.355499,135.773376 
	C158.259323,134.116425 156.325775,132.512100 156.217712,130.793030 
	C155.831757,124.652634 155.829407,118.458504 156.214615,112.318108 
	C156.324020,110.574013 158.245193,108.943581 159.335510,107.261024 
	C160.547394,108.526001 161.670410,109.895973 163.000320,111.021492 
	C163.995865,111.864021 165.245560,112.865471 166.405685,112.895882 
	C167.203918,112.916817 168.656418,111.469139 168.764343,110.553795 
	C169.511826,104.214592 163.634171,99.283760 157.447983,100.922073 
	C152.220917,102.306381 150.429214,106.400452 150.305527,111.153206 
	C150.110794,118.636086 150.396301,126.131477 150.661652,134.446274 
M28.490025,100.872894 
	C28.165276,102.273575 27.568901,103.672302 27.558865,105.075233 
	C27.480448,116.036507 27.510498,126.998589 27.517633,137.960419 
	C27.519035,140.113663 27.168234,142.561646 30.451267,142.604614 
	C33.747849,142.647781 33.451431,140.226242 33.452621,138.049225 
	C33.454933,133.824478 33.453300,129.599747 33.453300,125.375000 
	C34.042610,125.661354 34.631916,125.947708 35.221226,126.234055 
	C36.807236,124.843254 38.393250,123.452454 39.979256,122.061653 
	C38.338737,120.362999 36.698219,118.664337 35.057701,116.965683 
	C34.638718,117.254173 34.219734,117.542664 33.800751,117.831161 
	C33.800751,114.452065 33.800751,111.072975 33.800751,107.404350 
	C35.573612,107.292603 37.032986,107.062065 38.475555,107.140495 
	C40.960785,107.275620 42.673775,106.301109 41.880783,103.792572 
	C41.454689,102.444672 39.643314,100.846268 38.260189,100.632126 
	C35.349152,100.181404 32.308369,100.568687 28.490025,100.872894 
M200.367844,118.502625 
	C200.371719,125.330322 200.226700,132.164291 200.513626,138.980072 
	C200.566681,140.240112 202.364624,141.426712 203.357208,142.647202 
	C204.322556,141.440323 206.104065,140.248337 206.126389,139.024246 
	C206.339081,127.371063 206.339874,115.710861 206.128387,104.057648 
	C206.105667,102.805679 204.349335,101.585175 203.397186,100.350060 
	C202.391525,101.571892 200.623749,102.731750 200.518417,104.026810 
	C200.155151,108.493881 200.371994,113.008133 200.367844,118.502625 
M142.936890,138.941879 
	C142.937820,127.489136 143.041229,116.034309 142.808990,104.586296 
	C142.780228,103.168007 141.183258,100.871956 139.935379,100.576271 
	C137.292419,99.950066 136.937057,102.155022 136.948669,104.393997 
	C137.008163,115.846428 136.910431,127.300262 137.069168,138.750809 
	C137.086853,140.026291 138.382034,141.284073 139.084763,142.550049 
	C140.362534,141.638626 141.640305,140.727188 142.936890,138.941879 
z"/>
<path fill="#383D46" opacity="1.000000" stroke="none" 
	d="
M51.902340,86.459778 
	C41.241760,86.995972 30.487228,87.165771 19.335590,87.439072 
	C16.627260,79.722198 13.986112,71.980537 12.096587,64.059570 
	C10.164437,55.959923 8.969355,47.684444 7.175408,39.215874 
	C9.259913,34.649605 11.096943,29.940937 14.089012,26.141981 
	C20.566917,17.917139 28.008123,10.630509 38.586845,6.933001 
	C41.207100,33.619511 44.744377,60.142593 51.902340,86.459778 
z"/>
<path fill="#41454E" opacity="1.000000" stroke="none" 
	d="
M125.001572,156.852570 
	C140.338257,156.449158 155.705139,156.391434 171.532806,156.419556 
	C174.229370,163.600433 179.081970,168.255966 185.952438,170.621201 
	C188.708023,171.569855 190.870178,172.075989 190.585251,175.762146 
	C190.484787,177.061905 191.744049,178.818054 192.871811,179.808899 
	C210.501923,195.298584 230.409073,207.069580 252.496399,215.885010 
	C247.654694,229.878723 238.546173,240.450958 225.442352,247.995270 
	C211.841095,239.777100 198.308594,231.903641 185.397537,223.117004 
	C168.363693,211.524612 154.200943,196.731415 141.340073,180.714081 
	C140.405304,179.549896 140.529129,177.470840 140.335922,175.796921 
	C140.184891,174.488403 140.305664,173.148514 140.305664,171.822571 
	C139.819519,171.692825 139.333389,171.563080 138.847244,171.433334 
	C137.951080,173.093262 137.054901,174.753204 136.147339,176.434219 
	C132.384659,169.922745 128.708221,163.560516 125.001572,156.852570 
M179.647034,174.861969 
	C179.586945,174.462555 179.526855,174.063156 179.466751,173.663757 
	C178.952988,173.985764 178.439209,174.307770 177.904984,175.156326 
	C178.325562,175.161911 178.746124,175.167496 179.647034,174.861969 
M186.098221,176.290268 
	C186.098221,176.290268 186.285553,176.056564 186.285553,176.056564 
	C186.285553,176.056564 186.024780,176.197937 186.098221,176.290268 
z"/>
<path fill="#41454E" opacity="1.000000" stroke="none" 
	d="
M128.892700,169.861511 
	C128.945770,169.815628 129.118317,170.115692 129.118317,170.115692 
	C129.118317,170.115692 128.839615,169.907410 128.892700,169.861511 
z"/>
<path fill="#252E37" opacity="1.000000" stroke="none" 
	d="
M107.290489,126.902458 
	C106.586479,126.933723 105.591820,127.295235 105.577492,127.692139 
	C105.445518,131.347916 105.777626,135.046768 105.325211,138.651566 
	C105.146545,140.075165 103.330414,141.293228 102.259888,142.604889 
	C101.429085,141.281525 99.900085,139.970078 99.877296,138.632950 
	C99.684547,127.322823 99.684784,116.006660 99.871223,104.696335 
	C99.894211,103.301826 101.350777,101.930939 102.143021,100.549103 
	C103.451996,101.736763 105.418243,102.682121 105.960304,104.152504 
	C108.870255,112.046074 111.425705,120.070328 114.514252,129.273056 
	C117.448868,120.339348 119.820213,112.583771 122.622841,104.987328 
	C123.276749,103.214958 125.395142,101.982895 126.839722,100.502243 
	C127.637489,102.241959 129.090210,103.968422 129.125748,105.723579 
	C129.341202,116.367126 129.343491,127.019562 129.118683,137.662720 
	C129.083649,139.321198 127.689369,142.219757 126.633385,142.360046 
	C122.822952,142.866272 123.925842,139.550995 123.869606,137.472794 
	C123.746300,132.917053 123.831390,128.355667 122.800140,123.620834 
	C121.212608,128.588837 119.799095,133.623474 117.937286,138.486465 
	C117.336021,140.056946 115.556740,141.176422 114.316345,142.502228 
	C113.214478,141.220261 111.677132,140.108444 111.096565,138.622757 
	C109.650513,134.922241 108.639954,131.051514 107.290489,126.902458 
z"/>
<path fill="#24313A" opacity="1.000000" stroke="none" 
	d="
M89.774216,121.518433 
	C86.993706,123.955605 86.870209,126.345352 88.250183,129.300537 
	C89.577042,132.141983 90.707939,135.156052 91.308296,138.215271 
	C91.544853,139.420700 90.111588,140.953812 89.438705,142.337723 
	C88.246788,141.568588 86.469223,141.067749 85.971191,139.980698 
	C84.388451,136.526062 83.374825,132.815567 81.943466,129.284119 
	C81.425797,128.006912 80.348869,126.956406 79.527138,125.802452 
	C79.035225,125.961205 78.543312,126.119957 78.051399,126.278709 
	C78.051399,130.504120 78.268715,134.747528 77.921379,138.944199 
	C77.814651,140.233704 76.163383,141.395386 75.219376,142.615585 
	C74.174873,141.450546 72.245834,140.302628 72.222931,139.117828 
	C71.998047,127.486847 72.058556,115.849480 72.147491,104.214767 
	C72.155418,103.178566 72.639694,101.770538 73.402283,101.176880 
	C78.122719,97.502060 89.679306,101.463692 90.652893,107.540840 
	C91.357155,111.936928 90.255730,116.622284 89.774216,121.518433 
M79.576279,107.119507 
	C78.862076,110.888824 78.147873,114.658150 77.449547,118.343651 
	C82.567879,119.912567 85.246307,119.031662 85.775192,114.313705 
	C86.318855,109.463837 84.932457,107.506920 79.576279,107.119507 
z"/>
<path fill="#24303A" opacity="1.000000" stroke="none" 
	d="
M175.486496,141.852829 
	C175.492294,136.016769 175.690582,130.334396 176.312531,124.698769 
	C177.021744,118.272491 178.187637,111.897888 178.997971,105.480988 
	C179.404999,102.257736 180.494888,100.315399 184.237991,100.424919 
	C187.916885,100.532547 188.785965,102.284447 189.184631,105.669144 
	C190.425385,116.202644 192.087616,126.687119 193.636642,137.183182 
	C193.957565,139.357742 194.738663,141.687836 191.554794,142.271606 
	C188.398453,142.850357 187.991394,140.660187 187.957108,138.304550 
	C187.890503,133.729233 185.238297,133.249191 182.084503,134.121704 
	C178.760498,136.146301 182.649384,143.036789 175.486496,141.852829 
M182.258041,126.209404 
	C183.362457,126.485207 184.466873,126.761017 186.336044,127.227806 
	C185.658997,123.270355 185.140945,120.242279 184.622894,117.214203 
	C184.208389,117.232582 183.793869,117.250961 183.379349,117.269348 
	C182.977600,119.970421 182.575851,122.671501 182.258041,126.209404 
z"/>
<path fill="#24303A" opacity="1.000000" stroke="none" 
	d="
M213.606293,136.863983 
	C213.280380,127.180168 212.845383,117.874687 213.048828,108.583183 
	C213.159515,103.528328 216.702499,100.662331 221.509216,100.511055 
	C226.600510,100.350838 230.416382,103.082886 230.678024,108.360100 
	C231.114151,117.156914 231.039154,126.004608 230.637482,134.806152 
	C230.449844,138.917374 227.795227,141.963715 223.392883,142.545685 
	C219.003128,143.125961 215.519913,141.653717 213.606293,136.863983 
M218.401657,113.150734 
	C218.400833,118.645485 218.293442,124.143211 218.446381,129.633682 
	C218.517532,132.188675 218.272339,135.749222 221.967255,135.495697 
	C223.172058,135.413040 224.909622,131.901794 225.064590,129.857147 
	C225.491211,124.228355 225.464813,118.527763 225.066772,112.894493 
	C224.929596,110.953163 223.167175,109.126678 222.147202,107.247734 
	C220.913300,108.929604 219.679398,110.611473 218.401657,113.150734 
z"/>
<path fill="#242F38" opacity="1.000000" stroke="none" 
	d="
M65.307457,107.109764 
	C65.526299,116.478531 65.917435,125.465187 65.563225,134.422363 
	C65.350365,139.805359 61.137665,142.966644 56.135300,142.657379 
	C51.298828,142.358368 47.991940,139.075058 47.837040,133.780304 
	C47.603458,125.795723 47.550041,117.798233 47.718769,109.812538 
	C47.813599,105.324539 49.623981,101.714836 54.630527,100.751472 
	C59.771732,99.762184 62.682426,101.402046 65.307457,107.109764 
M60.018570,117.603943 
	C60.013306,115.773964 60.427620,113.807693 59.889412,112.150841 
	C59.305153,110.352211 57.834511,108.841499 56.750385,107.205246 
	C55.606438,108.807938 53.579609,110.355553 53.475578,112.023109 
	C53.082737,118.320183 53.086647,124.669937 53.465298,130.968506 
	C53.565800,132.640350 55.536137,134.199814 56.647953,135.810867 
	C57.768318,134.057953 59.619343,132.398315 59.857517,130.532776 
	C60.359142,126.603683 60.015396,122.566658 60.018570,117.603943 
z"/>
<path fill="#24313B" opacity="1.000000" stroke="none" 
	d="
M150.570068,134.033920 
	C150.396301,126.131477 150.110794,118.636086 150.305527,111.153206 
	C150.429214,106.400452 152.220917,102.306381 157.447983,100.922073 
	C163.634171,99.283760 169.511826,104.214592 168.764343,110.553795 
	C168.656418,111.469139 167.203918,112.916817 166.405685,112.895882 
	C165.245560,112.865471 163.995865,111.864021 163.000320,111.021492 
	C161.670410,109.895973 160.547394,108.526001 159.335510,107.261017 
	C158.245193,108.943581 156.324020,110.574013 156.214615,112.318108 
	C155.829407,118.458504 155.831757,124.652634 156.217712,130.793030 
	C156.325775,132.512100 158.259323,134.116425 159.355499,135.773376 
	C160.559891,134.537415 161.654114,133.160110 163.002686,132.109177 
	C164.130249,131.230484 165.553253,130.271240 166.849594,130.265350 
	C167.484924,130.262482 168.725189,132.375137 168.667862,133.477081 
	C168.409470,138.444962 165.098694,142.143005 160.942093,142.606522 
	C156.204010,143.134888 152.412506,140.125320 150.570068,134.033920 
z"/>
<path fill="#243039" opacity="1.000000" stroke="none" 
	d="
M28.905430,100.742470 
	C32.308369,100.568687 35.349152,100.181404 38.260189,100.632126 
	C39.643314,100.846268 41.454689,102.444672 41.880783,103.792572 
	C42.673775,106.301109 40.960785,107.275620 38.475555,107.140495 
	C37.032986,107.062065 35.573612,107.292603 33.800751,107.404350 
	C33.800751,111.072975 33.800751,114.452065 33.800751,117.831161 
	C34.219734,117.542664 34.638718,117.254173 35.057701,116.965683 
	C36.698219,118.664337 38.338737,120.362999 39.979256,122.061653 
	C38.393250,123.452454 36.807236,124.843254 35.221226,126.234055 
	C34.631916,125.947708 34.042610,125.661354 33.453300,125.375000 
	C33.453300,129.599747 33.454933,133.824478 33.452621,138.049225 
	C33.451431,140.226242 33.747849,142.647781 30.451267,142.604614 
	C27.168234,142.561646 27.519035,140.113663 27.517633,137.960419 
	C27.510498,126.998589 27.480448,116.036507 27.558865,105.075233 
	C27.568901,103.672302 28.165276,102.273575 28.905430,100.742470 
z"/>
<path fill="#233841" opacity="1.000000" stroke="none" 
	d="
M200.367859,118.003517 
	C200.371994,113.008133 200.155151,108.493881 200.518417,104.026810 
	C200.623749,102.731750 202.391525,101.571892 203.397186,100.350067 
	C204.349335,101.585175 206.105667,102.805679 206.128387,104.057648 
	C206.339874,115.710861 206.339081,127.371063 206.126389,139.024246 
	C206.104065,140.248337 204.322556,141.440323 203.357208,142.647202 
	C202.364624,141.426712 200.566681,140.240112 200.513626,138.980072 
	C200.226700,132.164291 200.371719,125.330322 200.367859,118.003517 
z"/>
<path fill="#24303A" opacity="1.000000" stroke="none" 
	d="
M142.927475,139.378815 
	C141.640305,140.727188 140.362534,141.638626 139.084778,142.550049 
	C138.382034,141.284073 137.086853,140.026291 137.069168,138.750809 
	C136.910431,127.300262 137.008163,115.846428 136.948669,104.393997 
	C136.937057,102.155022 137.292419,99.950066 139.935379,100.576271 
	C141.183258,100.871956 142.780228,103.168007 142.808990,104.586296 
	C143.041229,116.034309 142.937820,127.489136 142.927475,139.378815 
z"/>
<path fill="#454951" opacity="1.000000" stroke="none" 
	d="
M186.061493,176.244110 
	C186.024780,176.197937 186.285553,176.056564 186.285553,176.056564 
	C186.285553,176.056564 186.098221,176.290268 186.061493,176.244110 
z"/>
<path fill="#AEB0B2" opacity="1.000000" stroke="none" 
	d="
M177.925430,174.629791 
	C178.439209,174.307770 178.952988,173.985764 179.466751,173.663757 
	C179.526855,174.063156 179.586945,174.462555 179.100494,174.872711 
	C178.344437,174.798889 178.134933,174.714325 177.925430,174.629791 
z"/>
<path fill="#AEB0B2" opacity="1.000000" stroke="none" 
	d="
M178.860321,175.028259 
	C178.746124,175.167496 178.325562,175.161911 177.915207,174.893051 
	C178.134933,174.714325 178.344437,174.798889 178.860321,175.028259 
z"/>
<path fill="#0AD0CE" opacity="1.000000" stroke="none" 
	d="
M80.005310,107.092911 
	C84.932457,107.506920 86.318855,109.463837 85.775192,114.313705 
	C85.246307,119.031662 82.567879,119.912567 77.449547,118.343651 
	C78.147873,114.658150 78.862076,110.888824 80.005310,107.092911 
z"/>
<path fill="#0CC7C5" opacity="1.000000" stroke="none" 
	d="
M182.216064,125.790985 
	C182.575851,122.671501 182.977600,119.970421 183.379349,117.269348 
	C183.793869,117.250961 184.208389,117.232582 184.622894,117.214203 
	C185.140945,120.242279 185.658997,123.270355 186.336044,127.227806 
	C184.466873,126.761017 183.362457,126.485207 182.216064,125.790985 
z"/>
<path fill="#0ACECC" opacity="1.000000" stroke="none" 
	d="
M218.423584,112.722038 
	C219.679398,110.611473 220.913300,108.929604 222.147186,107.247726 
	C223.167175,109.126678 224.929596,110.953163 225.066772,112.894493 
	C225.464813,118.527763 225.491211,124.228355 225.064590,129.857147 
	C224.909622,131.901794 223.172058,135.413040 221.967255,135.495697 
	C218.272339,135.749222 218.517532,132.188675 218.446381,129.633682 
	C218.293442,124.143211 218.400833,118.645485 218.423584,112.722038 
z"/>
<path fill="#0ACECC" opacity="1.000000" stroke="none" 
	d="
M60.018570,118.088936 
	C60.015396,122.566658 60.359142,126.603683 59.857517,130.532776 
	C59.619343,132.398315 57.768318,134.057953 56.647949,135.810867 
	C55.536137,134.199814 53.565800,132.640350 53.465298,130.968506 
	C53.086647,124.669937 53.082737,118.320183 53.475578,112.023109 
	C53.579609,110.355553 55.606438,108.807938 56.750381,107.205246 
	C57.834511,108.841499 59.305153,110.352211 59.889412,112.150841 
	C60.427620,113.807693 60.013306,115.773964 60.018570,118.088936 
z"/>
</svg>